<mxfile host="Electron" modified="2024-05-30T06:15:26.042Z" agent="Mozilla/5.0 (Macintosh; Intel Mac OS X 10_15_7) AppleWebKit/537.36 (KHTML, like Gecko) draw.io/21.1.2 Chrome/106.0.5249.199 Electron/21.4.3 Safari/537.36" etag="aZ9vujk5fyKBkD6z-Gyy" version="21.1.2" type="device">
  <diagram name="Page-1" id="1wvMdHCATP0mnGs3lpFB">
    <mxGraphModel dx="665" dy="449" grid="1" gridSize="10" guides="1" tooltips="1" connect="1" arrows="1" fold="1" page="1" pageScale="1" pageWidth="1169" pageHeight="827" math="0" shadow="0">
      <root>
        <mxCell id="0" />
        <mxCell id="1" parent="0" />
        <mxCell id="hazUilRkBuBQSuuFyQSv-60" value="" style="group;horizontal=1;verticalAlign=top;" vertex="1" connectable="0" parent="1">
          <mxGeometry x="419" y="320" width="410" height="170" as="geometry" />
        </mxCell>
        <mxCell id="hazUilRkBuBQSuuFyQSv-58" value="Pico W" style="rounded=1;whiteSpace=wrap;html=1;fillColor=#008a00;strokeColor=#005700;fontColor=#ffffff;" vertex="1" parent="hazUilRkBuBQSuuFyQSv-60">
          <mxGeometry width="410" height="170" as="geometry" />
        </mxCell>
        <mxCell id="hazUilRkBuBQSuuFyQSv-59" value="" style="rounded=1;whiteSpace=wrap;html=1;fillColor=#f5f5f5;fontColor=#333333;strokeColor=#666666;" vertex="1" parent="hazUilRkBuBQSuuFyQSv-60">
          <mxGeometry x="380" y="55" width="30" height="60" as="geometry" />
        </mxCell>
        <mxCell id="hazUilRkBuBQSuuFyQSv-118" value="&lt;table style=&quot;border: 1px solid rgb(0, 0, 0); border-collapse: collapse; background-color: rgb(225, 213, 231);&quot; border=&quot;1&quot;&gt;&lt;tbody&gt;&lt;tr&gt;&lt;td style=&quot;border-collapse: collapse;&quot; border=&quot;1&quot;&gt;36&lt;/td&gt;&lt;td&gt;37&lt;/td&gt;&lt;td&gt;38&lt;/td&gt;&lt;td&gt;39&lt;/td&gt;&lt;td&gt;40&lt;/td&gt;&lt;/tr&gt;&lt;/tbody&gt;&lt;/table&gt;" style="text;html=1;strokeColor=none;fillColor=none;align=center;verticalAlign=middle;whiteSpace=wrap;rounded=0;" vertex="1" parent="hazUilRkBuBQSuuFyQSv-60">
          <mxGeometry x="275" y="140" width="105" height="30" as="geometry" />
        </mxCell>
        <mxCell id="hazUilRkBuBQSuuFyQSv-119" value="&lt;font color=&quot;#ff0000&quot; style=&quot;font-size: 9px;&quot;&gt;3v3 Out&lt;/font&gt;" style="text;html=1;strokeColor=none;fillColor=none;align=center;verticalAlign=middle;whiteSpace=wrap;rounded=0;rotation=-90;fontStyle=1" vertex="1" parent="hazUilRkBuBQSuuFyQSv-60">
          <mxGeometry x="270" y="115" width="50" height="20" as="geometry" />
        </mxCell>
        <mxCell id="hazUilRkBuBQSuuFyQSv-120" value="&lt;font style=&quot;font-size: 9px;&quot;&gt;GND&lt;/font&gt;" style="text;html=1;strokeColor=none;fillColor=none;align=center;verticalAlign=middle;whiteSpace=wrap;rounded=0;rotation=-90;fontStyle=1" vertex="1" parent="hazUilRkBuBQSuuFyQSv-60">
          <mxGeometry x="302.5" y="115" width="50" height="20" as="geometry" />
        </mxCell>
        <mxCell id="hazUilRkBuBQSuuFyQSv-121" value="&lt;table style=&quot;border: 1px solid rgb(0, 0, 0); border-collapse: collapse; background-color: rgb(225, 213, 231);&quot; border=&quot;1&quot;&gt;&lt;tbody&gt;&lt;tr&gt;&lt;td style=&quot;border-collapse: collapse;&quot; border=&quot;1&quot;&gt;20&lt;/td&gt;&lt;td&gt;19&lt;/td&gt;&lt;td&gt;18&lt;/td&gt;&lt;td&gt;17&lt;/td&gt;&lt;td&gt;16&lt;/td&gt;&lt;/tr&gt;&lt;/tbody&gt;&lt;/table&gt;" style="text;html=1;strokeColor=none;fillColor=none;align=center;verticalAlign=middle;whiteSpace=wrap;rounded=0;" vertex="1" parent="hazUilRkBuBQSuuFyQSv-60">
          <mxGeometry x="10" width="105" height="30" as="geometry" />
        </mxCell>
        <mxCell id="hazUilRkBuBQSuuFyQSv-122" value="&lt;font color=&quot;#ff0000&quot; style=&quot;font-size: 9px;&quot;&gt;GP15&lt;/font&gt;" style="text;html=1;strokeColor=none;fillColor=none;align=center;verticalAlign=middle;whiteSpace=wrap;rounded=0;rotation=-90;fontStyle=1" vertex="1" parent="hazUilRkBuBQSuuFyQSv-60">
          <mxGeometry x="12" y="32" width="30" height="20" as="geometry" />
        </mxCell>
        <mxCell id="hazUilRkBuBQSuuFyQSv-127" value="&lt;font style=&quot;font-size: 5px;&quot;&gt;Pin&lt;/font&gt;" style="rounded=0;whiteSpace=wrap;html=1;fillColor=#647687;fontColor=#ffffff;strokeColor=#314354;" vertex="1" parent="hazUilRkBuBQSuuFyQSv-60">
          <mxGeometry x="22" y="55" width="10" height="10" as="geometry" />
        </mxCell>
        <mxCell id="hazUilRkBuBQSuuFyQSv-129" value="&lt;font style=&quot;font-size: 5px;&quot;&gt;Pin&lt;/font&gt;" style="rounded=0;whiteSpace=wrap;html=1;fillColor=#647687;fontColor=#ffffff;strokeColor=#314354;" vertex="1" parent="hazUilRkBuBQSuuFyQSv-60">
          <mxGeometry x="290" y="100" width="10" height="10" as="geometry" />
        </mxCell>
        <mxCell id="hazUilRkBuBQSuuFyQSv-137" value="&lt;font color=&quot;#ff0000&quot; style=&quot;font-size: 9px;&quot;&gt;VSYS&lt;/font&gt;" style="text;html=1;strokeColor=none;fillColor=none;align=center;verticalAlign=middle;whiteSpace=wrap;rounded=0;rotation=-90;fontStyle=1" vertex="1" parent="hazUilRkBuBQSuuFyQSv-60">
          <mxGeometry x="318" y="115" width="50" height="20" as="geometry" />
        </mxCell>
        <mxCell id="hazUilRkBuBQSuuFyQSv-138" value="&lt;font style=&quot;font-size: 5px;&quot;&gt;Pin&lt;/font&gt;" style="rounded=0;whiteSpace=wrap;html=1;fillColor=#647687;fontColor=#ffffff;strokeColor=#314354;" vertex="1" parent="hazUilRkBuBQSuuFyQSv-60">
          <mxGeometry x="322.5" y="100" width="10" height="10" as="geometry" />
        </mxCell>
        <mxCell id="hazUilRkBuBQSuuFyQSv-139" value="&lt;font style=&quot;font-size: 5px;&quot;&gt;Pin&lt;/font&gt;" style="rounded=0;whiteSpace=wrap;html=1;fillColor=#647687;fontColor=#ffffff;strokeColor=#314354;" vertex="1" parent="hazUilRkBuBQSuuFyQSv-60">
          <mxGeometry x="338" y="100" width="10" height="10" as="geometry" />
        </mxCell>
        <mxCell id="hazUilRkBuBQSuuFyQSv-140" value="&lt;table style=&quot;border: 1px solid rgb(0, 0, 0); border-collapse: collapse; background-color: rgb(225, 213, 231);&quot; border=&quot;1&quot;&gt;&lt;tbody&gt;&lt;tr&gt;&lt;td style=&quot;border-collapse: collapse;&quot; border=&quot;1&quot;&gt;21&lt;/td&gt;&lt;td&gt;22&lt;/td&gt;&lt;td&gt;23&lt;/td&gt;&lt;td&gt;24&lt;/td&gt;&lt;td&gt;25&lt;/td&gt;&lt;td&gt;26&lt;/td&gt;&lt;td&gt;27&lt;/td&gt;&lt;td&gt;28&lt;/td&gt;&lt;td&gt;29&lt;/td&gt;&lt;td&gt;30&lt;/td&gt;&lt;td&gt;31&lt;/td&gt;&lt;td&gt;32&lt;/td&gt;&lt;/tr&gt;&lt;/tbody&gt;&lt;/table&gt;" style="text;html=1;strokeColor=none;fillColor=none;align=center;verticalAlign=middle;whiteSpace=wrap;rounded=0;" vertex="1" parent="hazUilRkBuBQSuuFyQSv-60">
          <mxGeometry x="10" y="135" width="210" height="30" as="geometry" />
        </mxCell>
        <mxCell id="hazUilRkBuBQSuuFyQSv-141" value="&lt;font color=&quot;#ff0000&quot; style=&quot;font-size: 9px;&quot;&gt;GP17&lt;/font&gt;" style="text;html=1;strokeColor=none;fillColor=none;align=center;verticalAlign=middle;whiteSpace=wrap;rounded=0;rotation=-90;fontStyle=1" vertex="1" parent="hazUilRkBuBQSuuFyQSv-60">
          <mxGeometry x="26" y="115" width="30" height="20" as="geometry" />
        </mxCell>
        <mxCell id="hazUilRkBuBQSuuFyQSv-142" value="&lt;font color=&quot;#ff0000&quot; style=&quot;font-size: 9px;&quot;&gt;GP26&lt;/font&gt;" style="text;html=1;strokeColor=none;fillColor=none;align=center;verticalAlign=middle;whiteSpace=wrap;rounded=0;rotation=-90;fontStyle=1" vertex="1" parent="hazUilRkBuBQSuuFyQSv-60">
          <mxGeometry x="172" y="116" width="30" height="20" as="geometry" />
        </mxCell>
        <mxCell id="hazUilRkBuBQSuuFyQSv-160" value="&lt;font style=&quot;font-size: 5px;&quot;&gt;Pin&lt;/font&gt;" style="rounded=0;whiteSpace=wrap;html=1;fillColor=#647687;fontColor=#ffffff;strokeColor=#314354;" vertex="1" parent="hazUilRkBuBQSuuFyQSv-60">
          <mxGeometry x="182" y="100" width="10" height="10" as="geometry" />
        </mxCell>
        <mxCell id="hazUilRkBuBQSuuFyQSv-161" value="&lt;font style=&quot;font-size: 5px;&quot;&gt;Pin&lt;/font&gt;" style="rounded=0;whiteSpace=wrap;html=1;fillColor=#647687;fontColor=#ffffff;strokeColor=#314354;" vertex="1" parent="hazUilRkBuBQSuuFyQSv-60">
          <mxGeometry x="36" y="100" width="10" height="10" as="geometry" />
        </mxCell>
        <mxCell id="vGI9dAIOgNJk3KFAiJ7O-1" value="" style="rounded=0;whiteSpace=wrap;html=1;fillColor=none;" parent="1" vertex="1">
          <mxGeometry x="299" y="71.5" width="530" height="230" as="geometry" />
        </mxCell>
        <mxCell id="vGI9dAIOgNJk3KFAiJ7O-3" value="" style="ellipse;whiteSpace=wrap;html=1;aspect=fixed;" parent="1" vertex="1">
          <mxGeometry x="349" y="91.5" width="10" height="10" as="geometry" />
        </mxCell>
        <mxCell id="vGI9dAIOgNJk3KFAiJ7O-4" value="" style="ellipse;whiteSpace=wrap;html=1;aspect=fixed;" parent="1" vertex="1">
          <mxGeometry x="369" y="91.5" width="10" height="10" as="geometry" />
        </mxCell>
        <mxCell id="vGI9dAIOgNJk3KFAiJ7O-5" value="" style="ellipse;whiteSpace=wrap;html=1;aspect=fixed;" parent="1" vertex="1">
          <mxGeometry x="389" y="91.5" width="10" height="10" as="geometry" />
        </mxCell>
        <mxCell id="vGI9dAIOgNJk3KFAiJ7O-6" value="" style="ellipse;whiteSpace=wrap;html=1;aspect=fixed;" parent="1" vertex="1">
          <mxGeometry x="409" y="91.5" width="10" height="10" as="geometry" />
        </mxCell>
        <mxCell id="vGI9dAIOgNJk3KFAiJ7O-7" value="" style="ellipse;whiteSpace=wrap;html=1;aspect=fixed;" parent="1" vertex="1">
          <mxGeometry x="429" y="91.5" width="10" height="10" as="geometry" />
        </mxCell>
        <mxCell id="vGI9dAIOgNJk3KFAiJ7O-8" value="" style="ellipse;whiteSpace=wrap;html=1;aspect=fixed;" parent="1" vertex="1">
          <mxGeometry x="449" y="91.5" width="10" height="10" as="geometry" />
        </mxCell>
        <mxCell id="vGI9dAIOgNJk3KFAiJ7O-9" value="" style="ellipse;whiteSpace=wrap;html=1;aspect=fixed;" parent="1" vertex="1">
          <mxGeometry x="469" y="91.5" width="10" height="10" as="geometry" />
        </mxCell>
        <mxCell id="vGI9dAIOgNJk3KFAiJ7O-10" value="" style="ellipse;whiteSpace=wrap;html=1;aspect=fixed;" parent="1" vertex="1">
          <mxGeometry x="489" y="91.5" width="10" height="10" as="geometry" />
        </mxCell>
        <mxCell id="vGI9dAIOgNJk3KFAiJ7O-11" value="" style="ellipse;whiteSpace=wrap;html=1;aspect=fixed;" parent="1" vertex="1">
          <mxGeometry x="509" y="91.5" width="10" height="10" as="geometry" />
        </mxCell>
        <mxCell id="vGI9dAIOgNJk3KFAiJ7O-12" value="" style="ellipse;whiteSpace=wrap;html=1;aspect=fixed;" parent="1" vertex="1">
          <mxGeometry x="529" y="91.5" width="10" height="10" as="geometry" />
        </mxCell>
        <mxCell id="vGI9dAIOgNJk3KFAiJ7O-13" value="" style="ellipse;whiteSpace=wrap;html=1;aspect=fixed;" parent="1" vertex="1">
          <mxGeometry x="549" y="91.5" width="10" height="10" as="geometry" />
        </mxCell>
        <mxCell id="vGI9dAIOgNJk3KFAiJ7O-14" value="" style="ellipse;whiteSpace=wrap;html=1;aspect=fixed;" parent="1" vertex="1">
          <mxGeometry x="569" y="91.5" width="10" height="10" as="geometry" />
        </mxCell>
        <mxCell id="vGI9dAIOgNJk3KFAiJ7O-15" value="" style="ellipse;whiteSpace=wrap;html=1;aspect=fixed;" parent="1" vertex="1">
          <mxGeometry x="589" y="91.5" width="10" height="10" as="geometry" />
        </mxCell>
        <mxCell id="vGI9dAIOgNJk3KFAiJ7O-16" value="" style="ellipse;whiteSpace=wrap;html=1;aspect=fixed;" parent="1" vertex="1">
          <mxGeometry x="609" y="91.5" width="10" height="10" as="geometry" />
        </mxCell>
        <mxCell id="vGI9dAIOgNJk3KFAiJ7O-17" value="" style="ellipse;whiteSpace=wrap;html=1;aspect=fixed;" parent="1" vertex="1">
          <mxGeometry x="629" y="91.5" width="10" height="10" as="geometry" />
        </mxCell>
        <mxCell id="vGI9dAIOgNJk3KFAiJ7O-18" value="" style="ellipse;whiteSpace=wrap;html=1;aspect=fixed;" parent="1" vertex="1">
          <mxGeometry x="649" y="91.5" width="10" height="10" as="geometry" />
        </mxCell>
        <mxCell id="vGI9dAIOgNJk3KFAiJ7O-19" value="" style="ellipse;whiteSpace=wrap;html=1;aspect=fixed;" parent="1" vertex="1">
          <mxGeometry x="669" y="91.5" width="10" height="10" as="geometry" />
        </mxCell>
        <mxCell id="vGI9dAIOgNJk3KFAiJ7O-20" value="" style="ellipse;whiteSpace=wrap;html=1;aspect=fixed;" parent="1" vertex="1">
          <mxGeometry x="689" y="91.5" width="10" height="10" as="geometry" />
        </mxCell>
        <mxCell id="vGI9dAIOgNJk3KFAiJ7O-21" value="" style="ellipse;whiteSpace=wrap;html=1;aspect=fixed;" parent="1" vertex="1">
          <mxGeometry x="709" y="91.5" width="10" height="10" as="geometry" />
        </mxCell>
        <mxCell id="vGI9dAIOgNJk3KFAiJ7O-22" value="" style="ellipse;whiteSpace=wrap;html=1;aspect=fixed;" parent="1" vertex="1">
          <mxGeometry x="729" y="91.5" width="10" height="10" as="geometry" />
        </mxCell>
        <mxCell id="vGI9dAIOgNJk3KFAiJ7O-23" value="" style="ellipse;whiteSpace=wrap;html=1;aspect=fixed;" parent="1" vertex="1">
          <mxGeometry x="749" y="91.5" width="10" height="10" as="geometry" />
        </mxCell>
        <mxCell id="vGI9dAIOgNJk3KFAiJ7O-24" value="" style="ellipse;whiteSpace=wrap;html=1;aspect=fixed;" parent="1" vertex="1">
          <mxGeometry x="769" y="91.5" width="10" height="10" as="geometry" />
        </mxCell>
        <mxCell id="vGI9dAIOgNJk3KFAiJ7O-25" value="" style="ellipse;whiteSpace=wrap;html=1;aspect=fixed;" parent="1" vertex="1">
          <mxGeometry x="789" y="91.5" width="10" height="10" as="geometry" />
        </mxCell>
        <mxCell id="vGI9dAIOgNJk3KFAiJ7O-29" value="&lt;span style=&quot;color: rgb(0, 0, 0); font-family: Helvetica; font-style: normal; font-variant-ligatures: normal; font-variant-caps: normal; font-weight: 400; letter-spacing: normal; orphans: 2; text-align: left; text-indent: 0px; text-transform: none; widows: 2; word-spacing: 0px; -webkit-text-stroke-width: 0px; background-color: rgb(251, 251, 251); text-decoration-thickness: initial; text-decoration-style: initial; text-decoration-color: initial; float: none; display: inline !important;&quot;&gt;&lt;font style=&quot;font-size: 12px;&quot;&gt;A&amp;nbsp; &amp;nbsp;B.&amp;nbsp; &amp;nbsp;C.&amp;nbsp; D.&amp;nbsp; &amp;nbsp;E.&amp;nbsp; F.&amp;nbsp; &amp;nbsp;G.&amp;nbsp; H&amp;nbsp; &amp;nbsp; I.&amp;nbsp; &amp;nbsp; J.&amp;nbsp; &amp;nbsp;K.&amp;nbsp; &amp;nbsp;L.&amp;nbsp; &amp;nbsp;M.&amp;nbsp; N.&amp;nbsp; O.&amp;nbsp; P.&amp;nbsp; &amp;nbsp;Q.&amp;nbsp; R.&amp;nbsp; &amp;nbsp;S.&amp;nbsp; &amp;nbsp;T.&amp;nbsp; &amp;nbsp;U.&amp;nbsp; V.&amp;nbsp; &amp;nbsp;W.&amp;nbsp; X&amp;nbsp; &amp;nbsp; &amp;nbsp;&amp;nbsp;&lt;/font&gt;&lt;/span&gt;" style="text;whiteSpace=wrap;html=1;fillColor=none;" parent="1" vertex="1">
          <mxGeometry x="329" y="68.5" width="480" height="20" as="geometry" />
        </mxCell>
        <mxCell id="vGI9dAIOgNJk3KFAiJ7O-30" value="" style="ellipse;whiteSpace=wrap;html=1;aspect=fixed;" parent="1" vertex="1">
          <mxGeometry x="329" y="91.5" width="10" height="10" as="geometry" />
        </mxCell>
        <mxCell id="vGI9dAIOgNJk3KFAiJ7O-31" value="" style="ellipse;whiteSpace=wrap;html=1;aspect=fixed;" parent="1" vertex="1">
          <mxGeometry x="349" y="111.5" width="10" height="10" as="geometry" />
        </mxCell>
        <mxCell id="vGI9dAIOgNJk3KFAiJ7O-32" value="" style="ellipse;whiteSpace=wrap;html=1;aspect=fixed;" parent="1" vertex="1">
          <mxGeometry x="369" y="111.5" width="10" height="10" as="geometry" />
        </mxCell>
        <mxCell id="vGI9dAIOgNJk3KFAiJ7O-33" value="" style="ellipse;whiteSpace=wrap;html=1;aspect=fixed;" parent="1" vertex="1">
          <mxGeometry x="389" y="111.5" width="10" height="10" as="geometry" />
        </mxCell>
        <mxCell id="vGI9dAIOgNJk3KFAiJ7O-34" value="" style="ellipse;whiteSpace=wrap;html=1;aspect=fixed;" parent="1" vertex="1">
          <mxGeometry x="409" y="111.5" width="10" height="10" as="geometry" />
        </mxCell>
        <mxCell id="vGI9dAIOgNJk3KFAiJ7O-35" value="" style="ellipse;whiteSpace=wrap;html=1;aspect=fixed;" parent="1" vertex="1">
          <mxGeometry x="429" y="111.5" width="10" height="10" as="geometry" />
        </mxCell>
        <mxCell id="vGI9dAIOgNJk3KFAiJ7O-36" value="" style="ellipse;whiteSpace=wrap;html=1;aspect=fixed;" parent="1" vertex="1">
          <mxGeometry x="449" y="111.5" width="10" height="10" as="geometry" />
        </mxCell>
        <mxCell id="vGI9dAIOgNJk3KFAiJ7O-37" value="" style="ellipse;whiteSpace=wrap;html=1;aspect=fixed;" parent="1" vertex="1">
          <mxGeometry x="469" y="111.5" width="10" height="10" as="geometry" />
        </mxCell>
        <mxCell id="vGI9dAIOgNJk3KFAiJ7O-38" value="" style="ellipse;whiteSpace=wrap;html=1;aspect=fixed;" parent="1" vertex="1">
          <mxGeometry x="489" y="111.5" width="10" height="10" as="geometry" />
        </mxCell>
        <mxCell id="vGI9dAIOgNJk3KFAiJ7O-39" value="" style="ellipse;whiteSpace=wrap;html=1;aspect=fixed;" parent="1" vertex="1">
          <mxGeometry x="509" y="111.5" width="10" height="10" as="geometry" />
        </mxCell>
        <mxCell id="vGI9dAIOgNJk3KFAiJ7O-40" value="" style="ellipse;whiteSpace=wrap;html=1;aspect=fixed;" parent="1" vertex="1">
          <mxGeometry x="529" y="111.5" width="10" height="10" as="geometry" />
        </mxCell>
        <mxCell id="vGI9dAIOgNJk3KFAiJ7O-41" value="" style="ellipse;whiteSpace=wrap;html=1;aspect=fixed;" parent="1" vertex="1">
          <mxGeometry x="549" y="111.5" width="10" height="10" as="geometry" />
        </mxCell>
        <mxCell id="vGI9dAIOgNJk3KFAiJ7O-42" value="" style="ellipse;whiteSpace=wrap;html=1;aspect=fixed;" parent="1" vertex="1">
          <mxGeometry x="569" y="111.5" width="10" height="10" as="geometry" />
        </mxCell>
        <mxCell id="vGI9dAIOgNJk3KFAiJ7O-43" value="" style="ellipse;whiteSpace=wrap;html=1;aspect=fixed;" parent="1" vertex="1">
          <mxGeometry x="589" y="111.5" width="10" height="10" as="geometry" />
        </mxCell>
        <mxCell id="vGI9dAIOgNJk3KFAiJ7O-44" value="" style="ellipse;whiteSpace=wrap;html=1;aspect=fixed;" parent="1" vertex="1">
          <mxGeometry x="609" y="111.5" width="10" height="10" as="geometry" />
        </mxCell>
        <mxCell id="vGI9dAIOgNJk3KFAiJ7O-45" value="" style="ellipse;whiteSpace=wrap;html=1;aspect=fixed;" parent="1" vertex="1">
          <mxGeometry x="629" y="111.5" width="10" height="10" as="geometry" />
        </mxCell>
        <mxCell id="vGI9dAIOgNJk3KFAiJ7O-46" value="" style="ellipse;whiteSpace=wrap;html=1;aspect=fixed;" parent="1" vertex="1">
          <mxGeometry x="649" y="111.5" width="10" height="10" as="geometry" />
        </mxCell>
        <mxCell id="vGI9dAIOgNJk3KFAiJ7O-47" value="" style="ellipse;whiteSpace=wrap;html=1;aspect=fixed;" parent="1" vertex="1">
          <mxGeometry x="669" y="111.5" width="10" height="10" as="geometry" />
        </mxCell>
        <mxCell id="vGI9dAIOgNJk3KFAiJ7O-48" value="" style="ellipse;whiteSpace=wrap;html=1;aspect=fixed;" parent="1" vertex="1">
          <mxGeometry x="689" y="111.5" width="10" height="10" as="geometry" />
        </mxCell>
        <mxCell id="hazUilRkBuBQSuuFyQSv-145" style="edgeStyle=none;orthogonalLoop=1;jettySize=auto;html=1;exitX=1;exitY=0;exitDx=0;exitDy=0;entryX=0;entryY=0.75;entryDx=0;entryDy=0;curved=1;strokeColor=#FF0000;strokeWidth=3;" edge="1" parent="1" source="vGI9dAIOgNJk3KFAiJ7O-49">
          <mxGeometry relative="1" as="geometry">
            <mxPoint x="336.875" y="161.5" as="targetPoint" />
            <Array as="points">
              <mxPoint x="739" y="60" />
              <mxPoint x="279" y="60" />
            </Array>
          </mxGeometry>
        </mxCell>
        <mxCell id="vGI9dAIOgNJk3KFAiJ7O-49" value="" style="ellipse;whiteSpace=wrap;html=1;aspect=fixed;" parent="1" vertex="1">
          <mxGeometry x="709" y="111.5" width="10" height="10" as="geometry" />
        </mxCell>
        <mxCell id="vGI9dAIOgNJk3KFAiJ7O-50" value="" style="ellipse;whiteSpace=wrap;html=1;aspect=fixed;" parent="1" vertex="1">
          <mxGeometry x="729" y="111.5" width="10" height="10" as="geometry" />
        </mxCell>
        <mxCell id="vGI9dAIOgNJk3KFAiJ7O-51" value="" style="ellipse;whiteSpace=wrap;html=1;aspect=fixed;" parent="1" vertex="1">
          <mxGeometry x="749" y="111.5" width="10" height="10" as="geometry" />
        </mxCell>
        <mxCell id="vGI9dAIOgNJk3KFAiJ7O-52" value="" style="ellipse;whiteSpace=wrap;html=1;aspect=fixed;" parent="1" vertex="1">
          <mxGeometry x="769" y="111.5" width="10" height="10" as="geometry" />
        </mxCell>
        <mxCell id="vGI9dAIOgNJk3KFAiJ7O-53" value="" style="ellipse;whiteSpace=wrap;html=1;aspect=fixed;" parent="1" vertex="1">
          <mxGeometry x="789" y="111.5" width="10" height="10" as="geometry" />
        </mxCell>
        <mxCell id="vGI9dAIOgNJk3KFAiJ7O-54" value="" style="ellipse;whiteSpace=wrap;html=1;aspect=fixed;" parent="1" vertex="1">
          <mxGeometry x="329" y="111.5" width="10" height="10" as="geometry" />
        </mxCell>
        <mxCell id="vGI9dAIOgNJk3KFAiJ7O-55" value="" style="ellipse;whiteSpace=wrap;html=1;aspect=fixed;" parent="1" vertex="1">
          <mxGeometry x="349" y="131.5" width="10" height="10" as="geometry" />
        </mxCell>
        <mxCell id="vGI9dAIOgNJk3KFAiJ7O-56" value="" style="ellipse;whiteSpace=wrap;html=1;aspect=fixed;" parent="1" vertex="1">
          <mxGeometry x="369" y="131.5" width="10" height="10" as="geometry" />
        </mxCell>
        <mxCell id="vGI9dAIOgNJk3KFAiJ7O-57" value="" style="ellipse;whiteSpace=wrap;html=1;aspect=fixed;" parent="1" vertex="1">
          <mxGeometry x="389" y="131.5" width="10" height="10" as="geometry" />
        </mxCell>
        <mxCell id="vGI9dAIOgNJk3KFAiJ7O-58" value="" style="ellipse;whiteSpace=wrap;html=1;aspect=fixed;" parent="1" vertex="1">
          <mxGeometry x="409" y="131.5" width="10" height="10" as="geometry" />
        </mxCell>
        <mxCell id="vGI9dAIOgNJk3KFAiJ7O-59" value="" style="ellipse;whiteSpace=wrap;html=1;aspect=fixed;" parent="1" vertex="1">
          <mxGeometry x="429" y="131.5" width="10" height="10" as="geometry" />
        </mxCell>
        <mxCell id="vGI9dAIOgNJk3KFAiJ7O-60" value="" style="ellipse;whiteSpace=wrap;html=1;aspect=fixed;" parent="1" vertex="1">
          <mxGeometry x="449" y="131.5" width="10" height="10" as="geometry" />
        </mxCell>
        <mxCell id="vGI9dAIOgNJk3KFAiJ7O-61" value="" style="ellipse;whiteSpace=wrap;html=1;aspect=fixed;" parent="1" vertex="1">
          <mxGeometry x="469" y="131.5" width="10" height="10" as="geometry" />
        </mxCell>
        <mxCell id="vGI9dAIOgNJk3KFAiJ7O-62" value="" style="ellipse;whiteSpace=wrap;html=1;aspect=fixed;" parent="1" vertex="1">
          <mxGeometry x="489" y="131.5" width="10" height="10" as="geometry" />
        </mxCell>
        <mxCell id="vGI9dAIOgNJk3KFAiJ7O-63" value="" style="ellipse;whiteSpace=wrap;html=1;aspect=fixed;" parent="1" vertex="1">
          <mxGeometry x="509" y="131.5" width="10" height="10" as="geometry" />
        </mxCell>
        <mxCell id="vGI9dAIOgNJk3KFAiJ7O-64" value="" style="ellipse;whiteSpace=wrap;html=1;aspect=fixed;" parent="1" vertex="1">
          <mxGeometry x="529" y="131.5" width="10" height="10" as="geometry" />
        </mxCell>
        <mxCell id="vGI9dAIOgNJk3KFAiJ7O-65" value="" style="ellipse;whiteSpace=wrap;html=1;aspect=fixed;" parent="1" vertex="1">
          <mxGeometry x="549" y="131.5" width="10" height="10" as="geometry" />
        </mxCell>
        <mxCell id="vGI9dAIOgNJk3KFAiJ7O-66" value="" style="ellipse;whiteSpace=wrap;html=1;aspect=fixed;" parent="1" vertex="1">
          <mxGeometry x="569" y="131.5" width="10" height="10" as="geometry" />
        </mxCell>
        <mxCell id="vGI9dAIOgNJk3KFAiJ7O-67" value="" style="ellipse;whiteSpace=wrap;html=1;aspect=fixed;" parent="1" vertex="1">
          <mxGeometry x="589" y="131.5" width="10" height="10" as="geometry" />
        </mxCell>
        <mxCell id="vGI9dAIOgNJk3KFAiJ7O-68" value="" style="ellipse;whiteSpace=wrap;html=1;aspect=fixed;" parent="1" vertex="1">
          <mxGeometry x="609" y="131.5" width="10" height="10" as="geometry" />
        </mxCell>
        <mxCell id="vGI9dAIOgNJk3KFAiJ7O-69" value="" style="ellipse;whiteSpace=wrap;html=1;aspect=fixed;" parent="1" vertex="1">
          <mxGeometry x="629" y="131.5" width="10" height="10" as="geometry" />
        </mxCell>
        <mxCell id="vGI9dAIOgNJk3KFAiJ7O-70" value="" style="ellipse;whiteSpace=wrap;html=1;aspect=fixed;" parent="1" vertex="1">
          <mxGeometry x="649" y="131.5" width="10" height="10" as="geometry" />
        </mxCell>
        <mxCell id="vGI9dAIOgNJk3KFAiJ7O-71" value="" style="ellipse;whiteSpace=wrap;html=1;aspect=fixed;" parent="1" vertex="1">
          <mxGeometry x="669" y="131.5" width="10" height="10" as="geometry" />
        </mxCell>
        <mxCell id="vGI9dAIOgNJk3KFAiJ7O-72" value="" style="ellipse;whiteSpace=wrap;html=1;aspect=fixed;" parent="1" vertex="1">
          <mxGeometry x="689" y="131.5" width="10" height="10" as="geometry" />
        </mxCell>
        <mxCell id="vGI9dAIOgNJk3KFAiJ7O-73" value="" style="ellipse;whiteSpace=wrap;html=1;aspect=fixed;" parent="1" vertex="1">
          <mxGeometry x="709" y="131.5" width="10" height="10" as="geometry" />
        </mxCell>
        <mxCell id="vGI9dAIOgNJk3KFAiJ7O-74" value="" style="ellipse;whiteSpace=wrap;html=1;aspect=fixed;" parent="1" vertex="1">
          <mxGeometry x="729" y="131.5" width="10" height="10" as="geometry" />
        </mxCell>
        <mxCell id="vGI9dAIOgNJk3KFAiJ7O-75" value="" style="ellipse;whiteSpace=wrap;html=1;aspect=fixed;" parent="1" vertex="1">
          <mxGeometry x="749" y="131.5" width="10" height="10" as="geometry" />
        </mxCell>
        <mxCell id="vGI9dAIOgNJk3KFAiJ7O-76" value="" style="ellipse;whiteSpace=wrap;html=1;aspect=fixed;" parent="1" vertex="1">
          <mxGeometry x="769" y="131.5" width="10" height="10" as="geometry" />
        </mxCell>
        <mxCell id="vGI9dAIOgNJk3KFAiJ7O-77" value="" style="ellipse;whiteSpace=wrap;html=1;aspect=fixed;" parent="1" vertex="1">
          <mxGeometry x="789" y="131.5" width="10" height="10" as="geometry" />
        </mxCell>
        <mxCell id="vGI9dAIOgNJk3KFAiJ7O-78" value="" style="ellipse;whiteSpace=wrap;html=1;aspect=fixed;" parent="1" vertex="1">
          <mxGeometry x="329" y="131.5" width="10" height="10" as="geometry" />
        </mxCell>
        <mxCell id="vGI9dAIOgNJk3KFAiJ7O-79" value="" style="ellipse;whiteSpace=wrap;html=1;aspect=fixed;" parent="1" vertex="1">
          <mxGeometry x="349" y="151.5" width="10" height="10" as="geometry" />
        </mxCell>
        <mxCell id="vGI9dAIOgNJk3KFAiJ7O-80" value="" style="ellipse;whiteSpace=wrap;html=1;aspect=fixed;" parent="1" vertex="1">
          <mxGeometry x="369" y="151.5" width="10" height="10" as="geometry" />
        </mxCell>
        <mxCell id="vGI9dAIOgNJk3KFAiJ7O-81" value="" style="ellipse;whiteSpace=wrap;html=1;aspect=fixed;" parent="1" vertex="1">
          <mxGeometry x="389" y="151.5" width="10" height="10" as="geometry" />
        </mxCell>
        <mxCell id="vGI9dAIOgNJk3KFAiJ7O-82" value="" style="ellipse;whiteSpace=wrap;html=1;aspect=fixed;" parent="1" vertex="1">
          <mxGeometry x="409" y="151.5" width="10" height="10" as="geometry" />
        </mxCell>
        <mxCell id="vGI9dAIOgNJk3KFAiJ7O-83" value="" style="ellipse;whiteSpace=wrap;html=1;aspect=fixed;" parent="1" vertex="1">
          <mxGeometry x="429" y="151.5" width="10" height="10" as="geometry" />
        </mxCell>
        <mxCell id="vGI9dAIOgNJk3KFAiJ7O-84" value="" style="ellipse;whiteSpace=wrap;html=1;aspect=fixed;" parent="1" vertex="1">
          <mxGeometry x="449" y="151.5" width="10" height="10" as="geometry" />
        </mxCell>
        <mxCell id="vGI9dAIOgNJk3KFAiJ7O-85" value="" style="ellipse;whiteSpace=wrap;html=1;aspect=fixed;" parent="1" vertex="1">
          <mxGeometry x="469" y="151.5" width="10" height="10" as="geometry" />
        </mxCell>
        <mxCell id="vGI9dAIOgNJk3KFAiJ7O-86" value="" style="ellipse;whiteSpace=wrap;html=1;aspect=fixed;" parent="1" vertex="1">
          <mxGeometry x="489" y="151.5" width="10" height="10" as="geometry" />
        </mxCell>
        <mxCell id="vGI9dAIOgNJk3KFAiJ7O-87" value="" style="ellipse;whiteSpace=wrap;html=1;aspect=fixed;" parent="1" vertex="1">
          <mxGeometry x="509" y="151.5" width="10" height="10" as="geometry" />
        </mxCell>
        <mxCell id="vGI9dAIOgNJk3KFAiJ7O-88" value="" style="ellipse;whiteSpace=wrap;html=1;aspect=fixed;" parent="1" vertex="1">
          <mxGeometry x="529" y="151.5" width="10" height="10" as="geometry" />
        </mxCell>
        <mxCell id="vGI9dAIOgNJk3KFAiJ7O-89" value="" style="ellipse;whiteSpace=wrap;html=1;aspect=fixed;" parent="1" vertex="1">
          <mxGeometry x="549" y="151.5" width="10" height="10" as="geometry" />
        </mxCell>
        <mxCell id="vGI9dAIOgNJk3KFAiJ7O-90" value="" style="ellipse;whiteSpace=wrap;html=1;aspect=fixed;" parent="1" vertex="1">
          <mxGeometry x="569" y="151.5" width="10" height="10" as="geometry" />
        </mxCell>
        <mxCell id="vGI9dAIOgNJk3KFAiJ7O-91" value="" style="ellipse;whiteSpace=wrap;html=1;aspect=fixed;" parent="1" vertex="1">
          <mxGeometry x="589" y="151.5" width="10" height="10" as="geometry" />
        </mxCell>
        <mxCell id="vGI9dAIOgNJk3KFAiJ7O-92" value="" style="ellipse;whiteSpace=wrap;html=1;aspect=fixed;" parent="1" vertex="1">
          <mxGeometry x="609" y="151.5" width="10" height="10" as="geometry" />
        </mxCell>
        <mxCell id="vGI9dAIOgNJk3KFAiJ7O-93" value="" style="ellipse;whiteSpace=wrap;html=1;aspect=fixed;" parent="1" vertex="1">
          <mxGeometry x="629" y="151.5" width="10" height="10" as="geometry" />
        </mxCell>
        <mxCell id="vGI9dAIOgNJk3KFAiJ7O-94" value="" style="ellipse;whiteSpace=wrap;html=1;aspect=fixed;" parent="1" vertex="1">
          <mxGeometry x="649" y="151.5" width="10" height="10" as="geometry" />
        </mxCell>
        <mxCell id="vGI9dAIOgNJk3KFAiJ7O-95" value="" style="ellipse;whiteSpace=wrap;html=1;aspect=fixed;" parent="1" vertex="1">
          <mxGeometry x="669" y="151.5" width="10" height="10" as="geometry" />
        </mxCell>
        <mxCell id="vGI9dAIOgNJk3KFAiJ7O-96" value="" style="ellipse;whiteSpace=wrap;html=1;aspect=fixed;" parent="1" vertex="1">
          <mxGeometry x="689" y="151.5" width="10" height="10" as="geometry" />
        </mxCell>
        <mxCell id="vGI9dAIOgNJk3KFAiJ7O-97" value="" style="ellipse;whiteSpace=wrap;html=1;aspect=fixed;" parent="1" vertex="1">
          <mxGeometry x="709" y="151.5" width="10" height="10" as="geometry" />
        </mxCell>
        <mxCell id="vGI9dAIOgNJk3KFAiJ7O-98" value="" style="ellipse;whiteSpace=wrap;html=1;aspect=fixed;" parent="1" vertex="1">
          <mxGeometry x="729" y="151.5" width="10" height="10" as="geometry" />
        </mxCell>
        <mxCell id="vGI9dAIOgNJk3KFAiJ7O-99" value="" style="ellipse;whiteSpace=wrap;html=1;aspect=fixed;" parent="1" vertex="1">
          <mxGeometry x="749" y="151.5" width="10" height="10" as="geometry" />
        </mxCell>
        <mxCell id="vGI9dAIOgNJk3KFAiJ7O-100" value="" style="ellipse;whiteSpace=wrap;html=1;aspect=fixed;" parent="1" vertex="1">
          <mxGeometry x="769" y="151.5" width="10" height="10" as="geometry" />
        </mxCell>
        <mxCell id="vGI9dAIOgNJk3KFAiJ7O-101" value="" style="ellipse;whiteSpace=wrap;html=1;aspect=fixed;" parent="1" vertex="1">
          <mxGeometry x="789" y="151.5" width="10" height="10" as="geometry" />
        </mxCell>
        <mxCell id="vGI9dAIOgNJk3KFAiJ7O-102" value="" style="ellipse;whiteSpace=wrap;html=1;aspect=fixed;" parent="1" vertex="1">
          <mxGeometry x="329" y="151.5" width="10" height="10" as="geometry" />
        </mxCell>
        <mxCell id="vGI9dAIOgNJk3KFAiJ7O-103" value="" style="ellipse;whiteSpace=wrap;html=1;aspect=fixed;" parent="1" vertex="1">
          <mxGeometry x="349" y="171.5" width="10" height="10" as="geometry" />
        </mxCell>
        <mxCell id="vGI9dAIOgNJk3KFAiJ7O-104" value="" style="ellipse;whiteSpace=wrap;html=1;aspect=fixed;" parent="1" vertex="1">
          <mxGeometry x="369" y="171.5" width="10" height="10" as="geometry" />
        </mxCell>
        <mxCell id="vGI9dAIOgNJk3KFAiJ7O-105" value="" style="ellipse;whiteSpace=wrap;html=1;aspect=fixed;" parent="1" vertex="1">
          <mxGeometry x="389" y="171.5" width="10" height="10" as="geometry" />
        </mxCell>
        <mxCell id="vGI9dAIOgNJk3KFAiJ7O-106" value="" style="ellipse;whiteSpace=wrap;html=1;aspect=fixed;" parent="1" vertex="1">
          <mxGeometry x="409" y="171.5" width="10" height="10" as="geometry" />
        </mxCell>
        <mxCell id="vGI9dAIOgNJk3KFAiJ7O-107" value="" style="ellipse;whiteSpace=wrap;html=1;aspect=fixed;" parent="1" vertex="1">
          <mxGeometry x="429" y="171.5" width="10" height="10" as="geometry" />
        </mxCell>
        <mxCell id="vGI9dAIOgNJk3KFAiJ7O-108" value="" style="ellipse;whiteSpace=wrap;html=1;aspect=fixed;" parent="1" vertex="1">
          <mxGeometry x="449" y="171.5" width="10" height="10" as="geometry" />
        </mxCell>
        <mxCell id="vGI9dAIOgNJk3KFAiJ7O-109" value="" style="ellipse;whiteSpace=wrap;html=1;aspect=fixed;" parent="1" vertex="1">
          <mxGeometry x="469" y="171.5" width="10" height="10" as="geometry" />
        </mxCell>
        <mxCell id="vGI9dAIOgNJk3KFAiJ7O-110" value="" style="ellipse;whiteSpace=wrap;html=1;aspect=fixed;" parent="1" vertex="1">
          <mxGeometry x="489" y="171.5" width="10" height="10" as="geometry" />
        </mxCell>
        <mxCell id="vGI9dAIOgNJk3KFAiJ7O-111" value="" style="ellipse;whiteSpace=wrap;html=1;aspect=fixed;" parent="1" vertex="1">
          <mxGeometry x="509" y="171.5" width="10" height="10" as="geometry" />
        </mxCell>
        <mxCell id="vGI9dAIOgNJk3KFAiJ7O-112" value="" style="ellipse;whiteSpace=wrap;html=1;aspect=fixed;" parent="1" vertex="1">
          <mxGeometry x="529" y="171.5" width="10" height="10" as="geometry" />
        </mxCell>
        <mxCell id="vGI9dAIOgNJk3KFAiJ7O-113" value="" style="ellipse;whiteSpace=wrap;html=1;aspect=fixed;" parent="1" vertex="1">
          <mxGeometry x="549" y="171.5" width="10" height="10" as="geometry" />
        </mxCell>
        <mxCell id="vGI9dAIOgNJk3KFAiJ7O-114" value="" style="ellipse;whiteSpace=wrap;html=1;aspect=fixed;" parent="1" vertex="1">
          <mxGeometry x="569" y="171.5" width="10" height="10" as="geometry" />
        </mxCell>
        <mxCell id="vGI9dAIOgNJk3KFAiJ7O-115" value="" style="ellipse;whiteSpace=wrap;html=1;aspect=fixed;" parent="1" vertex="1">
          <mxGeometry x="589" y="171.5" width="10" height="10" as="geometry" />
        </mxCell>
        <mxCell id="vGI9dAIOgNJk3KFAiJ7O-116" value="" style="ellipse;whiteSpace=wrap;html=1;aspect=fixed;" parent="1" vertex="1">
          <mxGeometry x="609" y="171.5" width="10" height="10" as="geometry" />
        </mxCell>
        <mxCell id="vGI9dAIOgNJk3KFAiJ7O-117" value="" style="ellipse;whiteSpace=wrap;html=1;aspect=fixed;" parent="1" vertex="1">
          <mxGeometry x="629" y="171.5" width="10" height="10" as="geometry" />
        </mxCell>
        <mxCell id="vGI9dAIOgNJk3KFAiJ7O-118" value="" style="ellipse;whiteSpace=wrap;html=1;aspect=fixed;" parent="1" vertex="1">
          <mxGeometry x="649" y="171.5" width="10" height="10" as="geometry" />
        </mxCell>
        <mxCell id="vGI9dAIOgNJk3KFAiJ7O-119" value="" style="ellipse;whiteSpace=wrap;html=1;aspect=fixed;" parent="1" vertex="1">
          <mxGeometry x="669" y="171.5" width="10" height="10" as="geometry" />
        </mxCell>
        <mxCell id="vGI9dAIOgNJk3KFAiJ7O-120" value="" style="ellipse;whiteSpace=wrap;html=1;aspect=fixed;" parent="1" vertex="1">
          <mxGeometry x="689" y="171.5" width="10" height="10" as="geometry" />
        </mxCell>
        <mxCell id="vGI9dAIOgNJk3KFAiJ7O-121" value="" style="ellipse;whiteSpace=wrap;html=1;aspect=fixed;" parent="1" vertex="1">
          <mxGeometry x="709" y="171.5" width="10" height="10" as="geometry" />
        </mxCell>
        <mxCell id="vGI9dAIOgNJk3KFAiJ7O-122" value="" style="ellipse;whiteSpace=wrap;html=1;aspect=fixed;" parent="1" vertex="1">
          <mxGeometry x="729" y="171.5" width="10" height="10" as="geometry" />
        </mxCell>
        <mxCell id="vGI9dAIOgNJk3KFAiJ7O-123" value="" style="ellipse;whiteSpace=wrap;html=1;aspect=fixed;" parent="1" vertex="1">
          <mxGeometry x="749" y="171.5" width="10" height="10" as="geometry" />
        </mxCell>
        <mxCell id="vGI9dAIOgNJk3KFAiJ7O-124" value="" style="ellipse;whiteSpace=wrap;html=1;aspect=fixed;" parent="1" vertex="1">
          <mxGeometry x="769" y="171.5" width="10" height="10" as="geometry" />
        </mxCell>
        <mxCell id="vGI9dAIOgNJk3KFAiJ7O-125" value="" style="ellipse;whiteSpace=wrap;html=1;aspect=fixed;" parent="1" vertex="1">
          <mxGeometry x="789" y="171.5" width="10" height="10" as="geometry" />
        </mxCell>
        <mxCell id="vGI9dAIOgNJk3KFAiJ7O-126" value="" style="ellipse;whiteSpace=wrap;html=1;aspect=fixed;" parent="1" vertex="1">
          <mxGeometry x="329" y="171.5" width="10" height="10" as="geometry" />
        </mxCell>
        <mxCell id="vGI9dAIOgNJk3KFAiJ7O-127" value="" style="ellipse;whiteSpace=wrap;html=1;aspect=fixed;" parent="1" vertex="1">
          <mxGeometry x="349" y="191.5" width="10" height="10" as="geometry" />
        </mxCell>
        <mxCell id="vGI9dAIOgNJk3KFAiJ7O-128" value="" style="ellipse;whiteSpace=wrap;html=1;aspect=fixed;" parent="1" vertex="1">
          <mxGeometry x="369" y="191.5" width="10" height="10" as="geometry" />
        </mxCell>
        <mxCell id="vGI9dAIOgNJk3KFAiJ7O-129" value="" style="ellipse;whiteSpace=wrap;html=1;aspect=fixed;" parent="1" vertex="1">
          <mxGeometry x="389" y="191.5" width="10" height="10" as="geometry" />
        </mxCell>
        <mxCell id="vGI9dAIOgNJk3KFAiJ7O-130" value="" style="ellipse;whiteSpace=wrap;html=1;aspect=fixed;" parent="1" vertex="1">
          <mxGeometry x="409" y="191.5" width="10" height="10" as="geometry" />
        </mxCell>
        <mxCell id="vGI9dAIOgNJk3KFAiJ7O-131" value="" style="ellipse;whiteSpace=wrap;html=1;aspect=fixed;" parent="1" vertex="1">
          <mxGeometry x="429" y="191.5" width="10" height="10" as="geometry" />
        </mxCell>
        <mxCell id="vGI9dAIOgNJk3KFAiJ7O-132" value="" style="ellipse;whiteSpace=wrap;html=1;aspect=fixed;" parent="1" vertex="1">
          <mxGeometry x="449" y="191.5" width="10" height="10" as="geometry" />
        </mxCell>
        <mxCell id="vGI9dAIOgNJk3KFAiJ7O-133" value="" style="ellipse;whiteSpace=wrap;html=1;aspect=fixed;" parent="1" vertex="1">
          <mxGeometry x="469" y="191.5" width="10" height="10" as="geometry" />
        </mxCell>
        <mxCell id="vGI9dAIOgNJk3KFAiJ7O-134" value="" style="ellipse;whiteSpace=wrap;html=1;aspect=fixed;" parent="1" vertex="1">
          <mxGeometry x="489" y="191.5" width="10" height="10" as="geometry" />
        </mxCell>
        <mxCell id="vGI9dAIOgNJk3KFAiJ7O-135" value="" style="ellipse;whiteSpace=wrap;html=1;aspect=fixed;" parent="1" vertex="1">
          <mxGeometry x="509" y="191.5" width="10" height="10" as="geometry" />
        </mxCell>
        <mxCell id="vGI9dAIOgNJk3KFAiJ7O-136" value="" style="ellipse;whiteSpace=wrap;html=1;aspect=fixed;" parent="1" vertex="1">
          <mxGeometry x="529" y="191.5" width="10" height="10" as="geometry" />
        </mxCell>
        <mxCell id="vGI9dAIOgNJk3KFAiJ7O-137" value="" style="ellipse;whiteSpace=wrap;html=1;aspect=fixed;" parent="1" vertex="1">
          <mxGeometry x="549" y="191.5" width="10" height="10" as="geometry" />
        </mxCell>
        <mxCell id="vGI9dAIOgNJk3KFAiJ7O-138" value="" style="ellipse;whiteSpace=wrap;html=1;aspect=fixed;" parent="1" vertex="1">
          <mxGeometry x="569" y="191.5" width="10" height="10" as="geometry" />
        </mxCell>
        <mxCell id="vGI9dAIOgNJk3KFAiJ7O-139" value="" style="ellipse;whiteSpace=wrap;html=1;aspect=fixed;" parent="1" vertex="1">
          <mxGeometry x="589" y="191.5" width="10" height="10" as="geometry" />
        </mxCell>
        <mxCell id="vGI9dAIOgNJk3KFAiJ7O-140" value="" style="ellipse;whiteSpace=wrap;html=1;aspect=fixed;" parent="1" vertex="1">
          <mxGeometry x="609" y="191.5" width="10" height="10" as="geometry" />
        </mxCell>
        <mxCell id="vGI9dAIOgNJk3KFAiJ7O-141" value="" style="ellipse;whiteSpace=wrap;html=1;aspect=fixed;" parent="1" vertex="1">
          <mxGeometry x="629" y="191.5" width="10" height="10" as="geometry" />
        </mxCell>
        <mxCell id="vGI9dAIOgNJk3KFAiJ7O-142" value="" style="ellipse;whiteSpace=wrap;html=1;aspect=fixed;" parent="1" vertex="1">
          <mxGeometry x="649" y="191.5" width="10" height="10" as="geometry" />
        </mxCell>
        <mxCell id="vGI9dAIOgNJk3KFAiJ7O-143" value="" style="ellipse;whiteSpace=wrap;html=1;aspect=fixed;" parent="1" vertex="1">
          <mxGeometry x="669" y="191.5" width="10" height="10" as="geometry" />
        </mxCell>
        <mxCell id="vGI9dAIOgNJk3KFAiJ7O-144" value="" style="ellipse;whiteSpace=wrap;html=1;aspect=fixed;" parent="1" vertex="1">
          <mxGeometry x="689" y="191.5" width="10" height="10" as="geometry" />
        </mxCell>
        <mxCell id="vGI9dAIOgNJk3KFAiJ7O-145" value="" style="ellipse;whiteSpace=wrap;html=1;aspect=fixed;" parent="1" vertex="1">
          <mxGeometry x="709" y="191.5" width="10" height="10" as="geometry" />
        </mxCell>
        <mxCell id="vGI9dAIOgNJk3KFAiJ7O-146" value="" style="ellipse;whiteSpace=wrap;html=1;aspect=fixed;" parent="1" vertex="1">
          <mxGeometry x="729" y="191.5" width="10" height="10" as="geometry" />
        </mxCell>
        <mxCell id="vGI9dAIOgNJk3KFAiJ7O-147" value="" style="ellipse;whiteSpace=wrap;html=1;aspect=fixed;" parent="1" vertex="1">
          <mxGeometry x="749" y="191.5" width="10" height="10" as="geometry" />
        </mxCell>
        <mxCell id="vGI9dAIOgNJk3KFAiJ7O-148" value="" style="ellipse;whiteSpace=wrap;html=1;aspect=fixed;" parent="1" vertex="1">
          <mxGeometry x="769" y="191.5" width="10" height="10" as="geometry" />
        </mxCell>
        <mxCell id="vGI9dAIOgNJk3KFAiJ7O-149" value="" style="ellipse;whiteSpace=wrap;html=1;aspect=fixed;" parent="1" vertex="1">
          <mxGeometry x="789" y="191.5" width="10" height="10" as="geometry" />
        </mxCell>
        <mxCell id="vGI9dAIOgNJk3KFAiJ7O-150" value="" style="ellipse;whiteSpace=wrap;html=1;aspect=fixed;" parent="1" vertex="1">
          <mxGeometry x="329" y="191.5" width="10" height="10" as="geometry" />
        </mxCell>
        <mxCell id="vGI9dAIOgNJk3KFAiJ7O-151" value="" style="ellipse;whiteSpace=wrap;html=1;aspect=fixed;" parent="1" vertex="1">
          <mxGeometry x="349" y="211.5" width="10" height="10" as="geometry" />
        </mxCell>
        <mxCell id="vGI9dAIOgNJk3KFAiJ7O-152" value="" style="ellipse;whiteSpace=wrap;html=1;aspect=fixed;" parent="1" vertex="1">
          <mxGeometry x="369" y="211.5" width="10" height="10" as="geometry" />
        </mxCell>
        <mxCell id="vGI9dAIOgNJk3KFAiJ7O-153" value="" style="ellipse;whiteSpace=wrap;html=1;aspect=fixed;" parent="1" vertex="1">
          <mxGeometry x="389" y="211.5" width="10" height="10" as="geometry" />
        </mxCell>
        <mxCell id="vGI9dAIOgNJk3KFAiJ7O-154" value="" style="ellipse;whiteSpace=wrap;html=1;aspect=fixed;" parent="1" vertex="1">
          <mxGeometry x="409" y="211.5" width="10" height="10" as="geometry" />
        </mxCell>
        <mxCell id="vGI9dAIOgNJk3KFAiJ7O-155" value="" style="ellipse;whiteSpace=wrap;html=1;aspect=fixed;" parent="1" vertex="1">
          <mxGeometry x="429" y="211.5" width="10" height="10" as="geometry" />
        </mxCell>
        <mxCell id="vGI9dAIOgNJk3KFAiJ7O-156" value="" style="ellipse;whiteSpace=wrap;html=1;aspect=fixed;" parent="1" vertex="1">
          <mxGeometry x="449" y="211.5" width="10" height="10" as="geometry" />
        </mxCell>
        <mxCell id="vGI9dAIOgNJk3KFAiJ7O-157" value="" style="ellipse;whiteSpace=wrap;html=1;aspect=fixed;" parent="1" vertex="1">
          <mxGeometry x="469" y="211.5" width="10" height="10" as="geometry" />
        </mxCell>
        <mxCell id="vGI9dAIOgNJk3KFAiJ7O-158" value="" style="ellipse;whiteSpace=wrap;html=1;aspect=fixed;" parent="1" vertex="1">
          <mxGeometry x="489" y="211.5" width="10" height="10" as="geometry" />
        </mxCell>
        <mxCell id="vGI9dAIOgNJk3KFAiJ7O-159" value="" style="ellipse;whiteSpace=wrap;html=1;aspect=fixed;" parent="1" vertex="1">
          <mxGeometry x="509" y="211.5" width="10" height="10" as="geometry" />
        </mxCell>
        <mxCell id="vGI9dAIOgNJk3KFAiJ7O-160" value="" style="ellipse;whiteSpace=wrap;html=1;aspect=fixed;" parent="1" vertex="1">
          <mxGeometry x="529" y="211.5" width="10" height="10" as="geometry" />
        </mxCell>
        <mxCell id="vGI9dAIOgNJk3KFAiJ7O-161" value="" style="ellipse;whiteSpace=wrap;html=1;aspect=fixed;" parent="1" vertex="1">
          <mxGeometry x="549" y="211.5" width="10" height="10" as="geometry" />
        </mxCell>
        <mxCell id="vGI9dAIOgNJk3KFAiJ7O-162" value="" style="ellipse;whiteSpace=wrap;html=1;aspect=fixed;" parent="1" vertex="1">
          <mxGeometry x="569" y="211.5" width="10" height="10" as="geometry" />
        </mxCell>
        <mxCell id="vGI9dAIOgNJk3KFAiJ7O-163" value="" style="ellipse;whiteSpace=wrap;html=1;aspect=fixed;" parent="1" vertex="1">
          <mxGeometry x="589" y="211.5" width="10" height="10" as="geometry" />
        </mxCell>
        <mxCell id="vGI9dAIOgNJk3KFAiJ7O-164" value="" style="ellipse;whiteSpace=wrap;html=1;aspect=fixed;" parent="1" vertex="1">
          <mxGeometry x="609" y="211.5" width="10" height="10" as="geometry" />
        </mxCell>
        <mxCell id="vGI9dAIOgNJk3KFAiJ7O-165" value="" style="ellipse;whiteSpace=wrap;html=1;aspect=fixed;" parent="1" vertex="1">
          <mxGeometry x="629" y="211.5" width="10" height="10" as="geometry" />
        </mxCell>
        <mxCell id="vGI9dAIOgNJk3KFAiJ7O-166" value="" style="ellipse;whiteSpace=wrap;html=1;aspect=fixed;" parent="1" vertex="1">
          <mxGeometry x="649" y="211.5" width="10" height="10" as="geometry" />
        </mxCell>
        <mxCell id="vGI9dAIOgNJk3KFAiJ7O-167" value="" style="ellipse;whiteSpace=wrap;html=1;aspect=fixed;" parent="1" vertex="1">
          <mxGeometry x="669" y="211.5" width="10" height="10" as="geometry" />
        </mxCell>
        <mxCell id="vGI9dAIOgNJk3KFAiJ7O-168" value="" style="ellipse;whiteSpace=wrap;html=1;aspect=fixed;" parent="1" vertex="1">
          <mxGeometry x="689" y="211.5" width="10" height="10" as="geometry" />
        </mxCell>
        <mxCell id="vGI9dAIOgNJk3KFAiJ7O-169" value="" style="ellipse;whiteSpace=wrap;html=1;aspect=fixed;" parent="1" vertex="1">
          <mxGeometry x="709" y="211.5" width="10" height="10" as="geometry" />
        </mxCell>
        <mxCell id="vGI9dAIOgNJk3KFAiJ7O-170" value="" style="ellipse;whiteSpace=wrap;html=1;aspect=fixed;" parent="1" vertex="1">
          <mxGeometry x="729" y="211.5" width="10" height="10" as="geometry" />
        </mxCell>
        <mxCell id="vGI9dAIOgNJk3KFAiJ7O-171" value="" style="ellipse;whiteSpace=wrap;html=1;aspect=fixed;" parent="1" vertex="1">
          <mxGeometry x="749" y="211.5" width="10" height="10" as="geometry" />
        </mxCell>
        <mxCell id="vGI9dAIOgNJk3KFAiJ7O-172" value="" style="ellipse;whiteSpace=wrap;html=1;aspect=fixed;" parent="1" vertex="1">
          <mxGeometry x="769" y="211.5" width="10" height="10" as="geometry" />
        </mxCell>
        <mxCell id="vGI9dAIOgNJk3KFAiJ7O-173" value="" style="ellipse;whiteSpace=wrap;html=1;aspect=fixed;" parent="1" vertex="1">
          <mxGeometry x="789" y="211.5" width="10" height="10" as="geometry" />
        </mxCell>
        <mxCell id="vGI9dAIOgNJk3KFAiJ7O-174" value="" style="ellipse;whiteSpace=wrap;html=1;aspect=fixed;" parent="1" vertex="1">
          <mxGeometry x="329" y="211.5" width="10" height="10" as="geometry" />
        </mxCell>
        <mxCell id="vGI9dAIOgNJk3KFAiJ7O-175" value="" style="ellipse;whiteSpace=wrap;html=1;aspect=fixed;" parent="1" vertex="1">
          <mxGeometry x="349" y="231.5" width="10" height="10" as="geometry" />
        </mxCell>
        <mxCell id="vGI9dAIOgNJk3KFAiJ7O-176" value="" style="ellipse;whiteSpace=wrap;html=1;aspect=fixed;" parent="1" vertex="1">
          <mxGeometry x="369" y="231.5" width="10" height="10" as="geometry" />
        </mxCell>
        <mxCell id="vGI9dAIOgNJk3KFAiJ7O-177" value="" style="ellipse;whiteSpace=wrap;html=1;aspect=fixed;" parent="1" vertex="1">
          <mxGeometry x="389" y="231.5" width="10" height="10" as="geometry" />
        </mxCell>
        <mxCell id="vGI9dAIOgNJk3KFAiJ7O-178" value="" style="ellipse;whiteSpace=wrap;html=1;aspect=fixed;" parent="1" vertex="1">
          <mxGeometry x="409" y="231.5" width="10" height="10" as="geometry" />
        </mxCell>
        <mxCell id="vGI9dAIOgNJk3KFAiJ7O-179" value="" style="ellipse;whiteSpace=wrap;html=1;aspect=fixed;" parent="1" vertex="1">
          <mxGeometry x="429" y="231.5" width="10" height="10" as="geometry" />
        </mxCell>
        <mxCell id="vGI9dAIOgNJk3KFAiJ7O-180" value="" style="ellipse;whiteSpace=wrap;html=1;aspect=fixed;" parent="1" vertex="1">
          <mxGeometry x="449" y="231.5" width="10" height="10" as="geometry" />
        </mxCell>
        <mxCell id="vGI9dAIOgNJk3KFAiJ7O-181" value="" style="ellipse;whiteSpace=wrap;html=1;aspect=fixed;" parent="1" vertex="1">
          <mxGeometry x="469" y="231.5" width="10" height="10" as="geometry" />
        </mxCell>
        <mxCell id="vGI9dAIOgNJk3KFAiJ7O-182" value="" style="ellipse;whiteSpace=wrap;html=1;aspect=fixed;" parent="1" vertex="1">
          <mxGeometry x="489" y="231.5" width="10" height="10" as="geometry" />
        </mxCell>
        <mxCell id="vGI9dAIOgNJk3KFAiJ7O-183" value="" style="ellipse;whiteSpace=wrap;html=1;aspect=fixed;" parent="1" vertex="1">
          <mxGeometry x="509" y="231.5" width="10" height="10" as="geometry" />
        </mxCell>
        <mxCell id="vGI9dAIOgNJk3KFAiJ7O-184" value="" style="ellipse;whiteSpace=wrap;html=1;aspect=fixed;" parent="1" vertex="1">
          <mxGeometry x="529" y="231.5" width="10" height="10" as="geometry" />
        </mxCell>
        <mxCell id="vGI9dAIOgNJk3KFAiJ7O-185" value="" style="ellipse;whiteSpace=wrap;html=1;aspect=fixed;" parent="1" vertex="1">
          <mxGeometry x="549" y="231.5" width="10" height="10" as="geometry" />
        </mxCell>
        <mxCell id="vGI9dAIOgNJk3KFAiJ7O-186" value="" style="ellipse;whiteSpace=wrap;html=1;aspect=fixed;" parent="1" vertex="1">
          <mxGeometry x="569" y="231.5" width="10" height="10" as="geometry" />
        </mxCell>
        <mxCell id="vGI9dAIOgNJk3KFAiJ7O-187" value="" style="ellipse;whiteSpace=wrap;html=1;aspect=fixed;" parent="1" vertex="1">
          <mxGeometry x="589" y="231.5" width="10" height="10" as="geometry" />
        </mxCell>
        <mxCell id="vGI9dAIOgNJk3KFAiJ7O-188" value="" style="ellipse;whiteSpace=wrap;html=1;aspect=fixed;" parent="1" vertex="1">
          <mxGeometry x="609" y="231.5" width="10" height="10" as="geometry" />
        </mxCell>
        <mxCell id="vGI9dAIOgNJk3KFAiJ7O-189" value="" style="ellipse;whiteSpace=wrap;html=1;aspect=fixed;" parent="1" vertex="1">
          <mxGeometry x="629" y="231.5" width="10" height="10" as="geometry" />
        </mxCell>
        <mxCell id="vGI9dAIOgNJk3KFAiJ7O-190" value="" style="ellipse;whiteSpace=wrap;html=1;aspect=fixed;" parent="1" vertex="1">
          <mxGeometry x="649" y="231.5" width="10" height="10" as="geometry" />
        </mxCell>
        <mxCell id="vGI9dAIOgNJk3KFAiJ7O-191" value="" style="ellipse;whiteSpace=wrap;html=1;aspect=fixed;" parent="1" vertex="1">
          <mxGeometry x="669" y="231.5" width="10" height="10" as="geometry" />
        </mxCell>
        <mxCell id="vGI9dAIOgNJk3KFAiJ7O-192" value="" style="ellipse;whiteSpace=wrap;html=1;aspect=fixed;" parent="1" vertex="1">
          <mxGeometry x="689" y="231.5" width="10" height="10" as="geometry" />
        </mxCell>
        <mxCell id="vGI9dAIOgNJk3KFAiJ7O-193" value="" style="ellipse;whiteSpace=wrap;html=1;aspect=fixed;" parent="1" vertex="1">
          <mxGeometry x="709" y="231.5" width="10" height="10" as="geometry" />
        </mxCell>
        <mxCell id="vGI9dAIOgNJk3KFAiJ7O-194" value="" style="ellipse;whiteSpace=wrap;html=1;aspect=fixed;" parent="1" vertex="1">
          <mxGeometry x="729" y="231.5" width="10" height="10" as="geometry" />
        </mxCell>
        <mxCell id="vGI9dAIOgNJk3KFAiJ7O-195" value="" style="ellipse;whiteSpace=wrap;html=1;aspect=fixed;" parent="1" vertex="1">
          <mxGeometry x="749" y="231.5" width="10" height="10" as="geometry" />
        </mxCell>
        <mxCell id="vGI9dAIOgNJk3KFAiJ7O-196" value="" style="ellipse;whiteSpace=wrap;html=1;aspect=fixed;" parent="1" vertex="1">
          <mxGeometry x="769" y="231.5" width="10" height="10" as="geometry" />
        </mxCell>
        <mxCell id="vGI9dAIOgNJk3KFAiJ7O-197" value="" style="ellipse;whiteSpace=wrap;html=1;aspect=fixed;" parent="1" vertex="1">
          <mxGeometry x="789" y="231.5" width="10" height="10" as="geometry" />
        </mxCell>
        <mxCell id="vGI9dAIOgNJk3KFAiJ7O-198" value="" style="ellipse;whiteSpace=wrap;html=1;aspect=fixed;" parent="1" vertex="1">
          <mxGeometry x="329" y="231.5" width="10" height="10" as="geometry" />
        </mxCell>
        <mxCell id="vGI9dAIOgNJk3KFAiJ7O-199" value="" style="ellipse;whiteSpace=wrap;html=1;aspect=fixed;" parent="1" vertex="1">
          <mxGeometry x="349" y="251.5" width="10" height="10" as="geometry" />
        </mxCell>
        <mxCell id="vGI9dAIOgNJk3KFAiJ7O-200" value="" style="ellipse;whiteSpace=wrap;html=1;aspect=fixed;" parent="1" vertex="1">
          <mxGeometry x="369" y="251.5" width="10" height="10" as="geometry" />
        </mxCell>
        <mxCell id="vGI9dAIOgNJk3KFAiJ7O-201" value="" style="ellipse;whiteSpace=wrap;html=1;aspect=fixed;" parent="1" vertex="1">
          <mxGeometry x="389" y="251.5" width="10" height="10" as="geometry" />
        </mxCell>
        <mxCell id="vGI9dAIOgNJk3KFAiJ7O-202" value="" style="ellipse;whiteSpace=wrap;html=1;aspect=fixed;" parent="1" vertex="1">
          <mxGeometry x="409" y="251.5" width="10" height="10" as="geometry" />
        </mxCell>
        <mxCell id="vGI9dAIOgNJk3KFAiJ7O-203" value="" style="ellipse;whiteSpace=wrap;html=1;aspect=fixed;" parent="1" vertex="1">
          <mxGeometry x="429" y="251.5" width="10" height="10" as="geometry" />
        </mxCell>
        <mxCell id="vGI9dAIOgNJk3KFAiJ7O-204" value="" style="ellipse;whiteSpace=wrap;html=1;aspect=fixed;" parent="1" vertex="1">
          <mxGeometry x="449" y="251.5" width="10" height="10" as="geometry" />
        </mxCell>
        <mxCell id="vGI9dAIOgNJk3KFAiJ7O-205" value="" style="ellipse;whiteSpace=wrap;html=1;aspect=fixed;" parent="1" vertex="1">
          <mxGeometry x="469" y="251.5" width="10" height="10" as="geometry" />
        </mxCell>
        <mxCell id="vGI9dAIOgNJk3KFAiJ7O-206" value="" style="ellipse;whiteSpace=wrap;html=1;aspect=fixed;" parent="1" vertex="1">
          <mxGeometry x="489" y="251.5" width="10" height="10" as="geometry" />
        </mxCell>
        <mxCell id="vGI9dAIOgNJk3KFAiJ7O-207" value="" style="ellipse;whiteSpace=wrap;html=1;aspect=fixed;" parent="1" vertex="1">
          <mxGeometry x="509" y="251.5" width="10" height="10" as="geometry" />
        </mxCell>
        <mxCell id="vGI9dAIOgNJk3KFAiJ7O-208" value="" style="ellipse;whiteSpace=wrap;html=1;aspect=fixed;" parent="1" vertex="1">
          <mxGeometry x="529" y="251.5" width="10" height="10" as="geometry" />
        </mxCell>
        <mxCell id="vGI9dAIOgNJk3KFAiJ7O-209" value="" style="ellipse;whiteSpace=wrap;html=1;aspect=fixed;" parent="1" vertex="1">
          <mxGeometry x="549" y="251.5" width="10" height="10" as="geometry" />
        </mxCell>
        <mxCell id="vGI9dAIOgNJk3KFAiJ7O-210" value="" style="ellipse;whiteSpace=wrap;html=1;aspect=fixed;" parent="1" vertex="1">
          <mxGeometry x="569" y="251.5" width="10" height="10" as="geometry" />
        </mxCell>
        <mxCell id="vGI9dAIOgNJk3KFAiJ7O-211" value="" style="ellipse;whiteSpace=wrap;html=1;aspect=fixed;" parent="1" vertex="1">
          <mxGeometry x="589" y="251.5" width="10" height="10" as="geometry" />
        </mxCell>
        <mxCell id="vGI9dAIOgNJk3KFAiJ7O-212" value="" style="ellipse;whiteSpace=wrap;html=1;aspect=fixed;" parent="1" vertex="1">
          <mxGeometry x="609" y="251.5" width="10" height="10" as="geometry" />
        </mxCell>
        <mxCell id="vGI9dAIOgNJk3KFAiJ7O-213" value="" style="ellipse;whiteSpace=wrap;html=1;aspect=fixed;" parent="1" vertex="1">
          <mxGeometry x="629" y="251.5" width="10" height="10" as="geometry" />
        </mxCell>
        <mxCell id="vGI9dAIOgNJk3KFAiJ7O-214" value="" style="ellipse;whiteSpace=wrap;html=1;aspect=fixed;" parent="1" vertex="1">
          <mxGeometry x="649" y="251.5" width="10" height="10" as="geometry" />
        </mxCell>
        <mxCell id="vGI9dAIOgNJk3KFAiJ7O-215" value="" style="ellipse;whiteSpace=wrap;html=1;aspect=fixed;" parent="1" vertex="1">
          <mxGeometry x="669" y="251.5" width="10" height="10" as="geometry" />
        </mxCell>
        <mxCell id="vGI9dAIOgNJk3KFAiJ7O-216" value="" style="ellipse;whiteSpace=wrap;html=1;aspect=fixed;" parent="1" vertex="1">
          <mxGeometry x="689" y="251.5" width="10" height="10" as="geometry" />
        </mxCell>
        <mxCell id="vGI9dAIOgNJk3KFAiJ7O-217" value="" style="ellipse;whiteSpace=wrap;html=1;aspect=fixed;" parent="1" vertex="1">
          <mxGeometry x="709" y="251.5" width="10" height="10" as="geometry" />
        </mxCell>
        <mxCell id="vGI9dAIOgNJk3KFAiJ7O-218" value="" style="ellipse;whiteSpace=wrap;html=1;aspect=fixed;" parent="1" vertex="1">
          <mxGeometry x="729" y="251.5" width="10" height="10" as="geometry" />
        </mxCell>
        <mxCell id="vGI9dAIOgNJk3KFAiJ7O-219" value="" style="ellipse;whiteSpace=wrap;html=1;aspect=fixed;" parent="1" vertex="1">
          <mxGeometry x="749" y="251.5" width="10" height="10" as="geometry" />
        </mxCell>
        <mxCell id="vGI9dAIOgNJk3KFAiJ7O-220" value="" style="ellipse;whiteSpace=wrap;html=1;aspect=fixed;" parent="1" vertex="1">
          <mxGeometry x="769" y="251.5" width="10" height="10" as="geometry" />
        </mxCell>
        <mxCell id="vGI9dAIOgNJk3KFAiJ7O-221" value="" style="ellipse;whiteSpace=wrap;html=1;aspect=fixed;" parent="1" vertex="1">
          <mxGeometry x="789" y="251.5" width="10" height="10" as="geometry" />
        </mxCell>
        <mxCell id="vGI9dAIOgNJk3KFAiJ7O-222" value="" style="ellipse;whiteSpace=wrap;html=1;aspect=fixed;" parent="1" vertex="1">
          <mxGeometry x="329" y="251.5" width="10" height="10" as="geometry" />
        </mxCell>
        <mxCell id="vGI9dAIOgNJk3KFAiJ7O-223" value="" style="ellipse;whiteSpace=wrap;html=1;aspect=fixed;" parent="1" vertex="1">
          <mxGeometry x="349" y="271.5" width="10" height="10" as="geometry" />
        </mxCell>
        <mxCell id="vGI9dAIOgNJk3KFAiJ7O-224" value="" style="ellipse;whiteSpace=wrap;html=1;aspect=fixed;" parent="1" vertex="1">
          <mxGeometry x="369" y="271.5" width="10" height="10" as="geometry" />
        </mxCell>
        <mxCell id="vGI9dAIOgNJk3KFAiJ7O-225" value="" style="ellipse;whiteSpace=wrap;html=1;aspect=fixed;" parent="1" vertex="1">
          <mxGeometry x="389" y="271.5" width="10" height="10" as="geometry" />
        </mxCell>
        <mxCell id="vGI9dAIOgNJk3KFAiJ7O-226" value="" style="ellipse;whiteSpace=wrap;html=1;aspect=fixed;" parent="1" vertex="1">
          <mxGeometry x="409" y="271.5" width="10" height="10" as="geometry" />
        </mxCell>
        <mxCell id="vGI9dAIOgNJk3KFAiJ7O-227" value="" style="ellipse;whiteSpace=wrap;html=1;aspect=fixed;" parent="1" vertex="1">
          <mxGeometry x="429" y="271.5" width="10" height="10" as="geometry" />
        </mxCell>
        <mxCell id="vGI9dAIOgNJk3KFAiJ7O-228" value="" style="ellipse;whiteSpace=wrap;html=1;aspect=fixed;" parent="1" vertex="1">
          <mxGeometry x="449" y="271.5" width="10" height="10" as="geometry" />
        </mxCell>
        <mxCell id="vGI9dAIOgNJk3KFAiJ7O-229" value="" style="ellipse;whiteSpace=wrap;html=1;aspect=fixed;" parent="1" vertex="1">
          <mxGeometry x="469" y="271.5" width="10" height="10" as="geometry" />
        </mxCell>
        <mxCell id="vGI9dAIOgNJk3KFAiJ7O-230" value="" style="ellipse;whiteSpace=wrap;html=1;aspect=fixed;" parent="1" vertex="1">
          <mxGeometry x="489" y="271.5" width="10" height="10" as="geometry" />
        </mxCell>
        <mxCell id="vGI9dAIOgNJk3KFAiJ7O-231" value="" style="ellipse;whiteSpace=wrap;html=1;aspect=fixed;" parent="1" vertex="1">
          <mxGeometry x="509" y="271.5" width="10" height="10" as="geometry" />
        </mxCell>
        <mxCell id="vGI9dAIOgNJk3KFAiJ7O-232" value="" style="ellipse;whiteSpace=wrap;html=1;aspect=fixed;" parent="1" vertex="1">
          <mxGeometry x="529" y="271.5" width="10" height="10" as="geometry" />
        </mxCell>
        <mxCell id="vGI9dAIOgNJk3KFAiJ7O-233" value="" style="ellipse;whiteSpace=wrap;html=1;aspect=fixed;" parent="1" vertex="1">
          <mxGeometry x="549" y="271.5" width="10" height="10" as="geometry" />
        </mxCell>
        <mxCell id="vGI9dAIOgNJk3KFAiJ7O-234" value="" style="ellipse;whiteSpace=wrap;html=1;aspect=fixed;" parent="1" vertex="1">
          <mxGeometry x="569" y="271.5" width="10" height="10" as="geometry" />
        </mxCell>
        <mxCell id="vGI9dAIOgNJk3KFAiJ7O-235" value="" style="ellipse;whiteSpace=wrap;html=1;aspect=fixed;" parent="1" vertex="1">
          <mxGeometry x="589" y="271.5" width="10" height="10" as="geometry" />
        </mxCell>
        <mxCell id="vGI9dAIOgNJk3KFAiJ7O-236" value="" style="ellipse;whiteSpace=wrap;html=1;aspect=fixed;" parent="1" vertex="1">
          <mxGeometry x="609" y="271.5" width="10" height="10" as="geometry" />
        </mxCell>
        <mxCell id="vGI9dAIOgNJk3KFAiJ7O-237" value="" style="ellipse;whiteSpace=wrap;html=1;aspect=fixed;" parent="1" vertex="1">
          <mxGeometry x="629" y="271.5" width="10" height="10" as="geometry" />
        </mxCell>
        <mxCell id="vGI9dAIOgNJk3KFAiJ7O-238" value="" style="ellipse;whiteSpace=wrap;html=1;aspect=fixed;" parent="1" vertex="1">
          <mxGeometry x="649" y="271.5" width="10" height="10" as="geometry" />
        </mxCell>
        <mxCell id="vGI9dAIOgNJk3KFAiJ7O-239" value="" style="ellipse;whiteSpace=wrap;html=1;aspect=fixed;" parent="1" vertex="1">
          <mxGeometry x="669" y="271.5" width="10" height="10" as="geometry" />
        </mxCell>
        <mxCell id="vGI9dAIOgNJk3KFAiJ7O-240" value="" style="ellipse;whiteSpace=wrap;html=1;aspect=fixed;" parent="1" vertex="1">
          <mxGeometry x="689" y="271.5" width="10" height="10" as="geometry" />
        </mxCell>
        <mxCell id="vGI9dAIOgNJk3KFAiJ7O-241" value="" style="ellipse;whiteSpace=wrap;html=1;aspect=fixed;" parent="1" vertex="1">
          <mxGeometry x="709" y="271.5" width="10" height="10" as="geometry" />
        </mxCell>
        <mxCell id="vGI9dAIOgNJk3KFAiJ7O-242" value="" style="ellipse;whiteSpace=wrap;html=1;aspect=fixed;" parent="1" vertex="1">
          <mxGeometry x="729" y="271.5" width="10" height="10" as="geometry" />
        </mxCell>
        <mxCell id="vGI9dAIOgNJk3KFAiJ7O-243" value="" style="ellipse;whiteSpace=wrap;html=1;aspect=fixed;" parent="1" vertex="1">
          <mxGeometry x="749" y="271.5" width="10" height="10" as="geometry" />
        </mxCell>
        <mxCell id="vGI9dAIOgNJk3KFAiJ7O-244" value="" style="ellipse;whiteSpace=wrap;html=1;aspect=fixed;" parent="1" vertex="1">
          <mxGeometry x="769" y="271.5" width="10" height="10" as="geometry" />
        </mxCell>
        <mxCell id="vGI9dAIOgNJk3KFAiJ7O-245" value="" style="ellipse;whiteSpace=wrap;html=1;aspect=fixed;" parent="1" vertex="1">
          <mxGeometry x="789" y="271.5" width="10" height="10" as="geometry" />
        </mxCell>
        <mxCell id="vGI9dAIOgNJk3KFAiJ7O-246" value="" style="ellipse;whiteSpace=wrap;html=1;aspect=fixed;" parent="1" vertex="1">
          <mxGeometry x="329" y="271.5" width="10" height="10" as="geometry" />
        </mxCell>
        <mxCell id="vGI9dAIOgNJk3KFAiJ7O-249" value="1" style="text;html=1;strokeColor=none;fillColor=none;align=center;verticalAlign=bottom;whiteSpace=wrap;rounded=0;fontSize=10;" parent="1" vertex="1">
          <mxGeometry x="273" y="84.5" width="20" height="20" as="geometry" />
        </mxCell>
        <mxCell id="vGI9dAIOgNJk3KFAiJ7O-252" value="2" style="text;html=1;strokeColor=none;fillColor=none;align=center;verticalAlign=bottom;whiteSpace=wrap;rounded=0;fontSize=10;" parent="1" vertex="1">
          <mxGeometry x="273" y="100" width="20" height="24.5" as="geometry" />
        </mxCell>
        <mxCell id="vGI9dAIOgNJk3KFAiJ7O-253" value="3" style="text;html=1;strokeColor=none;fillColor=none;align=center;verticalAlign=bottom;whiteSpace=wrap;rounded=0;fontSize=10;" parent="1" vertex="1">
          <mxGeometry x="273" y="125.5" width="20" height="20" as="geometry" />
        </mxCell>
        <mxCell id="vGI9dAIOgNJk3KFAiJ7O-254" value="4" style="text;html=1;strokeColor=none;fillColor=none;align=center;verticalAlign=bottom;whiteSpace=wrap;rounded=0;fontSize=10;" parent="1" vertex="1">
          <mxGeometry x="273" y="145.5" width="20" height="20" as="geometry" />
        </mxCell>
        <mxCell id="vGI9dAIOgNJk3KFAiJ7O-255" value="5" style="text;html=1;strokeColor=none;fillColor=none;align=center;verticalAlign=bottom;whiteSpace=wrap;rounded=0;fontSize=10;" parent="1" vertex="1">
          <mxGeometry x="273" y="164.5" width="20" height="20" as="geometry" />
        </mxCell>
        <mxCell id="vGI9dAIOgNJk3KFAiJ7O-256" value="6" style="text;html=1;strokeColor=none;fillColor=none;align=center;verticalAlign=bottom;whiteSpace=wrap;rounded=0;fontSize=10;" parent="1" vertex="1">
          <mxGeometry x="273" y="185.5" width="20" height="20" as="geometry" />
        </mxCell>
        <mxCell id="vGI9dAIOgNJk3KFAiJ7O-257" value="7" style="text;html=1;strokeColor=none;fillColor=none;align=center;verticalAlign=bottom;whiteSpace=wrap;rounded=0;fontSize=10;" parent="1" vertex="1">
          <mxGeometry x="273" y="205.5" width="20" height="20" as="geometry" />
        </mxCell>
        <mxCell id="vGI9dAIOgNJk3KFAiJ7O-258" value="8" style="text;html=1;strokeColor=none;fillColor=none;align=center;verticalAlign=bottom;whiteSpace=wrap;rounded=0;fontSize=10;" parent="1" vertex="1">
          <mxGeometry x="273" y="224.5" width="20" height="20" as="geometry" />
        </mxCell>
        <mxCell id="vGI9dAIOgNJk3KFAiJ7O-259" value="9" style="text;html=1;strokeColor=none;fillColor=none;align=center;verticalAlign=bottom;whiteSpace=wrap;rounded=0;fontSize=10;" parent="1" vertex="1">
          <mxGeometry x="273" y="244.5" width="20" height="20" as="geometry" />
        </mxCell>
        <mxCell id="vGI9dAIOgNJk3KFAiJ7O-260" value="10" style="text;html=1;strokeColor=none;fillColor=none;align=center;verticalAlign=bottom;whiteSpace=wrap;rounded=0;fontSize=10;" parent="1" vertex="1">
          <mxGeometry x="273" y="264.5" width="20" height="20" as="geometry" />
        </mxCell>
        <mxCell id="vGI9dAIOgNJk3KFAiJ7O-261" value="24 x 10 perforated board" style="text;html=1;strokeColor=none;fillColor=none;align=center;verticalAlign=middle;whiteSpace=wrap;rounded=0;fontSize=15;" parent="1" vertex="1">
          <mxGeometry x="469" y="30" width="190" height="30" as="geometry" />
        </mxCell>
        <mxCell id="vGI9dAIOgNJk3KFAiJ7O-262" value="&lt;h1&gt;BoM (on board)&lt;/h1&gt;&lt;table style=&quot;background-color: initial; border: 1px solid rgb(0, 0, 0); border-collapse: collapse; font-size: 14px;&quot; border=&quot;1&quot;&gt;&lt;tbody&gt;&lt;tr&gt;&lt;td&gt;Screw terminal 1x2&lt;br&gt;&lt;/td&gt;&lt;td&gt;x1&lt;/td&gt;&lt;td&gt;&lt;br&gt;&lt;/td&gt;&lt;/tr&gt;&lt;tr&gt;&lt;td&gt;N MOS BSS214&lt;/td&gt;&lt;td&gt;x1&lt;br&gt;&lt;/td&gt;&lt;td&gt;10mm x 10mm x 14mm&lt;br&gt;(10mm Z without pin)&lt;br&gt;10mm x 6mm hole opening&lt;/td&gt;&lt;/tr&gt;&lt;tr&gt;&lt;td&gt;Cap 100n 1206&lt;/td&gt;&lt;td&gt;x1&lt;span style=&quot;&quot;&gt; &lt;/span&gt;&lt;/td&gt;&lt;td&gt;&lt;br&gt;&lt;/td&gt;&lt;/tr&gt;&lt;tr&gt;&lt;td&gt;Res 10k 0603&lt;/td&gt;&lt;td&gt;x3&lt;/td&gt;&lt;td&gt;&lt;br&gt;&lt;/td&gt;&lt;/tr&gt;&lt;tr&gt;&lt;td&gt;Res 4.75k 1206&lt;/td&gt;&lt;td&gt;x1&lt;/td&gt;&lt;td&gt;&lt;br&gt;&lt;/td&gt;&lt;/tr&gt;&lt;tr&gt;&lt;td&gt;ADC 12-5 Board&lt;/td&gt;&lt;td&gt;x1&lt;/td&gt;&lt;td&gt;&amp;nbsp;2.3mm x 1.8mm&lt;/td&gt;&lt;/tr&gt;&lt;tr&gt;&lt;td&gt;JST Connector (F) 1x2&lt;/td&gt;&lt;td&gt;x2&lt;/td&gt;&lt;td&gt;Pairs&lt;/td&gt;&lt;/tr&gt;&lt;tr&gt;&lt;td&gt;JST Connector (F) 1x4&lt;/td&gt;&lt;td&gt;x1&lt;/td&gt;&lt;td&gt;Pairs&lt;br&gt;&lt;/td&gt;&lt;/tr&gt;&lt;tr&gt;&lt;td&gt;Pin (2.54mm)&lt;/td&gt;&lt;td&gt;x6&lt;/td&gt;&lt;td&gt;&lt;br&gt;&lt;/td&gt;&lt;/tr&gt;&lt;/tbody&gt;&lt;/table&gt;&lt;p&gt;&lt;/p&gt;" style="text;html=1;strokeColor=none;fillColor=none;spacing=5;spacingTop=-20;whiteSpace=wrap;overflow=hidden;rounded=0;" parent="1" vertex="1">
          <mxGeometry x="20" y="540" width="360" height="270" as="geometry" />
        </mxCell>
        <mxCell id="vGI9dAIOgNJk3KFAiJ7O-264" value="&lt;h1&gt;BoM (off board)&lt;/h1&gt;&lt;br&gt;&lt;table style=&quot;background-color: initial; border: 1px solid rgb(0, 0, 0); border-collapse: collapse; font-size: 14px;&quot; border=&quot;1&quot;&gt;&lt;tbody&gt;&lt;tr&gt;&lt;td&gt;Pico W&lt;/td&gt;&lt;td&gt;x1&lt;/td&gt;&lt;td&gt;51mm x 21mm x 1mm&lt;/td&gt;&lt;/tr&gt;&lt;tr&gt;&lt;td&gt;Barrel jack&lt;/td&gt;&lt;td&gt;x1&lt;br&gt;&lt;/td&gt;&lt;td&gt;7.4mm D x 13.5mm &lt;br&gt;(8.3mm Z without pin)&lt;br&gt;5.0mm, 2.5m center&lt;/td&gt;&lt;/tr&gt;&lt;tr&gt;&lt;td&gt;Rocker switch&lt;/td&gt;&lt;td&gt;x1&lt;span style=&quot;white-space: pre;&quot;&gt; &lt;/span&gt;&lt;/td&gt;&lt;td&gt;13mm x 8.3mm x 18mm &lt;br&gt;(10.3mm Z without pin)&lt;/td&gt;&lt;/tr&gt;&lt;tr&gt;&lt;td&gt;Push switch &lt;br&gt;(Gateron)&lt;/td&gt;&lt;td&gt;x1&lt;/td&gt;&lt;td&gt;14.7mm x 14mm x 7.8mm&lt;br&gt;(4.5mm Z without pin)&lt;/td&gt;&lt;/tr&gt;&lt;/tbody&gt;&lt;/table&gt;&lt;p&gt;&lt;/p&gt;" style="text;html=1;strokeColor=none;fillColor=none;spacing=5;spacingTop=-20;whiteSpace=wrap;overflow=hidden;rounded=0;" parent="1" vertex="1">
          <mxGeometry x="373" y="591" width="350" height="233" as="geometry" />
        </mxCell>
        <mxCell id="hazUilRkBuBQSuuFyQSv-11" value="&lt;font style=&quot;font-size: 8px;&quot;&gt;4.75k&lt;/font&gt;" style="rounded=0;whiteSpace=wrap;html=1;gradientColor=none;fillColor=#B3B3B3;rotation=90;" vertex="1" parent="1">
          <mxGeometry x="382" y="244.5" width="24" height="12" as="geometry" />
        </mxCell>
        <mxCell id="hazUilRkBuBQSuuFyQSv-12" value="&lt;font style=&quot;font-size: 5px;&quot;&gt;10k&lt;/font&gt;" style="rounded=0;whiteSpace=wrap;html=1;gradientColor=none;fillColor=#B3B3B3;fontSize=5;rotation=-90;" vertex="1" parent="1">
          <mxGeometry x="388" y="203.5" width="12" height="8" as="geometry" />
        </mxCell>
        <mxCell id="hazUilRkBuBQSuuFyQSv-14" value="&lt;font style=&quot;font-size: 5px;&quot;&gt;10k&lt;/font&gt;" style="rounded=0;whiteSpace=wrap;html=1;gradientColor=none;fillColor=#B3B3B3;fontSize=5;rotation=-90;" vertex="1" parent="1">
          <mxGeometry x="388" y="223.5" width="12" height="8" as="geometry" />
        </mxCell>
        <mxCell id="hazUilRkBuBQSuuFyQSv-27" value="" style="group;fillColor=#f5f5f5;fontColor=#333333;strokeColor=#666666;" vertex="1" connectable="0" parent="1">
          <mxGeometry x="539" y="88.5" width="170" height="153" as="geometry" />
        </mxCell>
        <mxCell id="hazUilRkBuBQSuuFyQSv-16" value="" style="ellipse;whiteSpace=wrap;html=1;aspect=fixed;fillColor=#f5f5f5;fontColor=#333333;strokeColor=#666666;" vertex="1" parent="hazUilRkBuBQSuuFyQSv-27">
          <mxGeometry x="10" y="3.5" width="10" height="10" as="geometry" />
        </mxCell>
        <mxCell id="hazUilRkBuBQSuuFyQSv-17" value="" style="ellipse;whiteSpace=wrap;html=1;aspect=fixed;fillColor=#f5f5f5;fontColor=#333333;strokeColor=#666666;" vertex="1" parent="hazUilRkBuBQSuuFyQSv-27">
          <mxGeometry x="10" y="23.5" width="10" height="10" as="geometry" />
        </mxCell>
        <mxCell id="hazUilRkBuBQSuuFyQSv-18" value="" style="ellipse;whiteSpace=wrap;html=1;aspect=fixed;fillColor=#f5f5f5;fontColor=#333333;strokeColor=#666666;" vertex="1" parent="hazUilRkBuBQSuuFyQSv-27">
          <mxGeometry x="10" y="123.5" width="10" height="10" as="geometry" />
        </mxCell>
        <mxCell id="hazUilRkBuBQSuuFyQSv-19" value="" style="ellipse;whiteSpace=wrap;html=1;aspect=fixed;fillColor=#f5f5f5;fontColor=#333333;strokeColor=#666666;" vertex="1" parent="hazUilRkBuBQSuuFyQSv-27">
          <mxGeometry x="10" y="103.5" width="10" height="10" as="geometry" />
        </mxCell>
        <mxCell id="hazUilRkBuBQSuuFyQSv-20" value="" style="ellipse;whiteSpace=wrap;html=1;aspect=fixed;fillColor=#f5f5f5;fontColor=#333333;strokeColor=#666666;" vertex="1" parent="hazUilRkBuBQSuuFyQSv-27">
          <mxGeometry x="150" y="3.5" width="10" height="10" as="geometry" />
        </mxCell>
        <mxCell id="hazUilRkBuBQSuuFyQSv-21" value="" style="ellipse;whiteSpace=wrap;html=1;aspect=fixed;fillColor=#f5f5f5;fontColor=#333333;strokeColor=#666666;" vertex="1" parent="hazUilRkBuBQSuuFyQSv-27">
          <mxGeometry x="150" y="23.5" width="10" height="10" as="geometry" />
        </mxCell>
        <mxCell id="hazUilRkBuBQSuuFyQSv-22" value="" style="ellipse;whiteSpace=wrap;html=1;aspect=fixed;fillColor=#f5f5f5;fontColor=#333333;strokeColor=#666666;" vertex="1" parent="hazUilRkBuBQSuuFyQSv-27">
          <mxGeometry x="150" y="123.5" width="10" height="10" as="geometry" />
        </mxCell>
        <mxCell id="hazUilRkBuBQSuuFyQSv-23" value="" style="ellipse;whiteSpace=wrap;html=1;aspect=fixed;fillColor=#f5f5f5;fontColor=#333333;strokeColor=#666666;" vertex="1" parent="hazUilRkBuBQSuuFyQSv-27">
          <mxGeometry x="150" y="103.5" width="10" height="10" as="geometry" />
        </mxCell>
        <mxCell id="hazUilRkBuBQSuuFyQSv-25" value="" style="shape=flexArrow;endArrow=classic;html=1;rounded=0;fillColor=#f5f5f5;strokeColor=#666666;" edge="1" parent="hazUilRkBuBQSuuFyQSv-27">
          <mxGeometry width="50" height="50" relative="1" as="geometry">
            <mxPoint x="130" y="67" as="sourcePoint" />
            <mxPoint x="40" y="67" as="targetPoint" />
          </mxGeometry>
        </mxCell>
        <mxCell id="hazUilRkBuBQSuuFyQSv-26" value="OUT+&amp;nbsp; &amp;nbsp; &amp;nbsp; &amp;nbsp; &amp;nbsp; &amp;nbsp; &amp;nbsp; &amp;nbsp; IN+" style="text;html=1;strokeColor=none;fillColor=none;align=center;verticalAlign=middle;whiteSpace=wrap;rounded=0;fontColor=#333333;fontStyle=1" vertex="1" parent="hazUilRkBuBQSuuFyQSv-27">
          <mxGeometry x="27.5" y="13.5" width="115" height="30" as="geometry" />
        </mxCell>
        <mxCell id="hazUilRkBuBQSuuFyQSv-62" value="OUT-&amp;nbsp; &amp;nbsp; &amp;nbsp; &amp;nbsp; &amp;nbsp; &amp;nbsp; &amp;nbsp; &amp;nbsp; &amp;nbsp;IN-" style="text;html=1;strokeColor=none;fillColor=none;align=center;verticalAlign=middle;whiteSpace=wrap;rounded=0;fontColor=#333333;" vertex="1" parent="hazUilRkBuBQSuuFyQSv-27">
          <mxGeometry x="27.5" y="93.5" width="115" height="30" as="geometry" />
        </mxCell>
        <mxCell id="hazUilRkBuBQSuuFyQSv-71" value="" style="rounded=0;whiteSpace=wrap;html=1;fillColor=#d5e8d4;strokeColor=#82b366;opacity=60;rotation=-90;" vertex="1" parent="hazUilRkBuBQSuuFyQSv-27">
          <mxGeometry x="-30" y="141.5" width="90" height="11.5" as="geometry" />
        </mxCell>
        <mxCell id="hazUilRkBuBQSuuFyQSv-149" value="" style="rounded=0;whiteSpace=wrap;html=1;fillColor=#d5e8d4;strokeColor=#82b366;opacity=60;" vertex="1" parent="hazUilRkBuBQSuuFyQSv-27">
          <mxGeometry x="-30" y="0.5" width="50" height="33" as="geometry" />
        </mxCell>
        <mxCell id="hazUilRkBuBQSuuFyQSv-150" value="" style="rounded=0;whiteSpace=wrap;html=1;fillColor=#d5e8d4;strokeColor=#82b366;opacity=60;" vertex="1" parent="hazUilRkBuBQSuuFyQSv-27">
          <mxGeometry x="-30" y="43.5" width="10" height="66.5" as="geometry" />
        </mxCell>
        <mxCell id="hazUilRkBuBQSuuFyQSv-32" value="" style="group;rotation=0;" vertex="1" connectable="0" parent="1">
          <mxGeometry x="309" y="140" width="50" height="73" as="geometry" />
        </mxCell>
        <mxCell id="hazUilRkBuBQSuuFyQSv-28" value="" style="rounded=0;whiteSpace=wrap;html=1;rotation=90;fillColor=#3333FF;strokeColor=#6c8ebf;" vertex="1" parent="hazUilRkBuBQSuuFyQSv-32">
          <mxGeometry x="-11" y="11" width="73" height="50" as="geometry" />
        </mxCell>
        <mxCell id="hazUilRkBuBQSuuFyQSv-30" value="Screw Terminal" style="ellipse;whiteSpace=wrap;html=1;aspect=fixed;fillColor=#dae8fc;strokeColor=#6c8ebf;labelBorderColor=none;fontColor=#FF8000;rotation=0;" vertex="1" parent="hazUilRkBuBQSuuFyQSv-32">
          <mxGeometry x="11" y="6" width="30" height="30" as="geometry" />
        </mxCell>
        <mxCell id="hazUilRkBuBQSuuFyQSv-31" value="" style="ellipse;whiteSpace=wrap;html=1;aspect=fixed;fillColor=#dae8fc;strokeColor=#6c8ebf;rotation=0;" vertex="1" parent="hazUilRkBuBQSuuFyQSv-32">
          <mxGeometry x="11" y="39" width="30" height="30" as="geometry" />
        </mxCell>
        <mxCell id="hazUilRkBuBQSuuFyQSv-33" value="1" style="text;html=1;strokeColor=none;fillColor=none;align=center;verticalAlign=bottom;whiteSpace=wrap;rounded=0;fontSize=10;" vertex="1" parent="1">
          <mxGeometry x="808" y="84.5" width="20" height="20" as="geometry" />
        </mxCell>
        <mxCell id="hazUilRkBuBQSuuFyQSv-34" value="2" style="text;html=1;strokeColor=none;fillColor=none;align=center;verticalAlign=bottom;whiteSpace=wrap;rounded=0;fontSize=10;" vertex="1" parent="1">
          <mxGeometry x="808" y="104.5" width="20" height="20" as="geometry" />
        </mxCell>
        <mxCell id="hazUilRkBuBQSuuFyQSv-35" value="3" style="text;html=1;strokeColor=none;fillColor=none;align=center;verticalAlign=bottom;whiteSpace=wrap;rounded=0;fontSize=10;" vertex="1" parent="1">
          <mxGeometry x="808" y="125.5" width="20" height="20" as="geometry" />
        </mxCell>
        <mxCell id="hazUilRkBuBQSuuFyQSv-36" value="4" style="text;html=1;strokeColor=none;fillColor=none;align=center;verticalAlign=bottom;whiteSpace=wrap;rounded=0;fontSize=10;" vertex="1" parent="1">
          <mxGeometry x="808" y="145.5" width="20" height="20" as="geometry" />
        </mxCell>
        <mxCell id="hazUilRkBuBQSuuFyQSv-37" value="5" style="text;html=1;strokeColor=none;fillColor=none;align=center;verticalAlign=bottom;whiteSpace=wrap;rounded=0;fontSize=10;" vertex="1" parent="1">
          <mxGeometry x="808" y="164.5" width="20" height="20" as="geometry" />
        </mxCell>
        <mxCell id="hazUilRkBuBQSuuFyQSv-38" value="6" style="text;html=1;strokeColor=none;fillColor=none;align=center;verticalAlign=bottom;whiteSpace=wrap;rounded=0;fontSize=10;" vertex="1" parent="1">
          <mxGeometry x="808" y="185.5" width="20" height="20" as="geometry" />
        </mxCell>
        <mxCell id="hazUilRkBuBQSuuFyQSv-39" value="7" style="text;html=1;strokeColor=none;fillColor=none;align=center;verticalAlign=bottom;whiteSpace=wrap;rounded=0;fontSize=10;" vertex="1" parent="1">
          <mxGeometry x="808" y="205.5" width="20" height="20" as="geometry" />
        </mxCell>
        <mxCell id="hazUilRkBuBQSuuFyQSv-40" value="8" style="text;html=1;strokeColor=none;fillColor=none;align=center;verticalAlign=bottom;whiteSpace=wrap;rounded=0;fontSize=10;" vertex="1" parent="1">
          <mxGeometry x="808" y="224.5" width="20" height="20" as="geometry" />
        </mxCell>
        <mxCell id="hazUilRkBuBQSuuFyQSv-41" value="9" style="text;html=1;strokeColor=none;fillColor=none;align=center;verticalAlign=bottom;whiteSpace=wrap;rounded=0;fontSize=10;" vertex="1" parent="1">
          <mxGeometry x="808" y="244.5" width="20" height="20" as="geometry" />
        </mxCell>
        <mxCell id="hazUilRkBuBQSuuFyQSv-42" value="10" style="text;html=1;strokeColor=none;fillColor=none;align=center;verticalAlign=bottom;whiteSpace=wrap;rounded=0;fontSize=10;" vertex="1" parent="1">
          <mxGeometry x="808" y="264.5" width="20" height="20" as="geometry" />
        </mxCell>
        <mxCell id="hazUilRkBuBQSuuFyQSv-57" value="" style="group;verticalAlign=middle;" vertex="1" connectable="0" parent="1">
          <mxGeometry x="299" y="340" width="120" height="120" as="geometry" />
        </mxCell>
        <mxCell id="hazUilRkBuBQSuuFyQSv-131" value="" style="rounded=0;whiteSpace=wrap;html=1;fillColor=#e3c800;fontColor=#000000;strokeColor=#B09500;" vertex="1" parent="hazUilRkBuBQSuuFyQSv-57">
          <mxGeometry x="50" y="-10" width="5" height="13" as="geometry" />
        </mxCell>
        <mxCell id="hazUilRkBuBQSuuFyQSv-132" value="" style="rounded=0;whiteSpace=wrap;html=1;fillColor=#e3c800;fontColor=#000000;strokeColor=#B09500;" vertex="1" parent="hazUilRkBuBQSuuFyQSv-57">
          <mxGeometry x="70" y="-10" width="5" height="13" as="geometry" />
        </mxCell>
        <mxCell id="hazUilRkBuBQSuuFyQSv-54" value="Switch" style="rounded=1;whiteSpace=wrap;html=1;fillColor=#fff2cc;strokeColor=#d6b656;gradientColor=#ffd966;align=left;verticalAlign=top;" vertex="1" parent="hazUilRkBuBQSuuFyQSv-57">
          <mxGeometry width="120" height="120" as="geometry" />
        </mxCell>
        <mxCell id="hazUilRkBuBQSuuFyQSv-55" value="" style="rounded=0;whiteSpace=wrap;html=1;fillColor=#FFFF00;strokeColor=#d6b656;" vertex="1" parent="hazUilRkBuBQSuuFyQSv-57">
          <mxGeometry x="32.5" y="53" width="55" height="20" as="geometry" />
        </mxCell>
        <mxCell id="hazUilRkBuBQSuuFyQSv-56" value="" style="rounded=0;whiteSpace=wrap;html=1;rotation=-90;fillColor=#FFFF00;strokeColor=#d6b656;" vertex="1" parent="hazUilRkBuBQSuuFyQSv-57">
          <mxGeometry x="32.5" y="53" width="55" height="20" as="geometry" />
        </mxCell>
        <mxCell id="hazUilRkBuBQSuuFyQSv-53" value="" style="group;rotation=-90;" vertex="1" connectable="0" parent="1">
          <mxGeometry x="741" y="221.5" width="110" height="127" as="geometry" />
        </mxCell>
        <mxCell id="hazUilRkBuBQSuuFyQSv-49" value="Rocker&lt;br&gt;Switch" style="rounded=0;whiteSpace=wrap;html=1;rotation=-90;fillColor=#f5f5f5;gradientColor=#b3b3b3;strokeColor=#666666;" vertex="1" parent="hazUilRkBuBQSuuFyQSv-53">
          <mxGeometry x="30" y="31" width="90" height="65" as="geometry" />
        </mxCell>
        <mxCell id="hazUilRkBuBQSuuFyQSv-50" value="" style="rounded=0;whiteSpace=wrap;html=1;rotation=-90;fillColor=#f5f5f5;gradientColor=#b3b3b3;strokeColor=#666666;" vertex="1" parent="hazUilRkBuBQSuuFyQSv-53">
          <mxGeometry x="58" y="57" width="110" height="11" as="geometry" />
        </mxCell>
        <mxCell id="hazUilRkBuBQSuuFyQSv-51" value="" style="rounded=0;whiteSpace=wrap;html=1;rotation=-180;fillColor=#f5f5f5;gradientColor=#b3b3b3;strokeColor=#666666;" vertex="1" parent="hazUilRkBuBQSuuFyQSv-53">
          <mxGeometry x="-8" y="33" width="50" height="11" as="geometry" />
        </mxCell>
        <mxCell id="hazUilRkBuBQSuuFyQSv-52" value="" style="rounded=0;whiteSpace=wrap;html=1;rotation=-180;fillColor=#f5f5f5;gradientColor=#b3b3b3;strokeColor=#666666;" vertex="1" parent="hazUilRkBuBQSuuFyQSv-53">
          <mxGeometry x="-8" y="58" width="50" height="11" as="geometry" />
        </mxCell>
        <mxCell id="hazUilRkBuBQSuuFyQSv-66" value="" style="group;rotation=-90;" vertex="1" connectable="0" parent="1">
          <mxGeometry x="442" y="144" width="117" height="109" as="geometry" />
        </mxCell>
        <mxCell id="hazUilRkBuBQSuuFyQSv-8" value="" style="group;rotation=-270;" vertex="1" connectable="0" parent="hazUilRkBuBQSuuFyQSv-66">
          <mxGeometry x="14" y="15" width="35" height="40" as="geometry" />
        </mxCell>
        <mxCell id="hazUilRkBuBQSuuFyQSv-2" value="" style="rounded=0;whiteSpace=wrap;html=1;rotation=-450;fillColor=#000000;movable=1;resizable=1;rotatable=1;deletable=1;editable=1;locked=0;connectable=1;container=0;" vertex="1" parent="hazUilRkBuBQSuuFyQSv-8">
          <mxGeometry x="9" y="8" width="20" height="10" as="geometry" />
        </mxCell>
        <mxCell id="hazUilRkBuBQSuuFyQSv-3" value="" style="rounded=0;whiteSpace=wrap;html=1;rotation=-450;fillColor=#000000;movable=1;resizable=1;rotatable=1;deletable=1;editable=1;locked=0;connectable=1;container=0;" vertex="1" parent="hazUilRkBuBQSuuFyQSv-8">
          <mxGeometry x="19" y="23" width="20" height="10" as="geometry" />
        </mxCell>
        <mxCell id="hazUilRkBuBQSuuFyQSv-4" value="" style="rounded=0;whiteSpace=wrap;html=1;rotation=-450;fillColor=#000000;movable=1;resizable=1;rotatable=1;deletable=1;editable=1;locked=0;connectable=1;container=0;" vertex="1" parent="hazUilRkBuBQSuuFyQSv-8">
          <mxGeometry x="-5" y="23" width="20" height="10" as="geometry" />
        </mxCell>
        <mxCell id="hazUilRkBuBQSuuFyQSv-1" value="&lt;font style=&quot;font-size: 5px;&quot; color=&quot;#ffffff&quot;&gt;BSS214&lt;/font&gt;" style="rounded=0;whiteSpace=wrap;html=1;rotation=-360;fillColor=#000000;movable=1;resizable=1;rotatable=1;deletable=1;editable=1;locked=0;connectable=1;container=0;" vertex="1" parent="hazUilRkBuBQSuuFyQSv-8">
          <mxGeometry x="-2" y="15" width="40" height="15" as="geometry" />
        </mxCell>
        <mxCell id="hazUilRkBuBQSuuFyQSv-63" value="&lt;font color=&quot;#ff8000&quot;&gt;G&lt;/font&gt;" style="text;html=1;strokeColor=none;fillColor=none;align=center;verticalAlign=middle;whiteSpace=wrap;rounded=0;rotation=-90;" vertex="1" parent="hazUilRkBuBQSuuFyQSv-66">
          <mxGeometry x="-4" y="43" width="21" height="30" as="geometry" />
        </mxCell>
        <mxCell id="hazUilRkBuBQSuuFyQSv-64" value="&lt;font color=&quot;#ff8000&quot;&gt;S&lt;/font&gt;" style="text;html=1;strokeColor=none;fillColor=none;align=center;verticalAlign=middle;whiteSpace=wrap;rounded=0;rotation=-90;" vertex="1" parent="hazUilRkBuBQSuuFyQSv-66">
          <mxGeometry x="43" y="43" width="21" height="30" as="geometry" />
        </mxCell>
        <mxCell id="hazUilRkBuBQSuuFyQSv-65" value="&lt;font color=&quot;#ff8000&quot;&gt;D&lt;/font&gt;" style="text;html=1;strokeColor=none;fillColor=none;align=center;verticalAlign=middle;whiteSpace=wrap;rounded=0;rotation=-90;" vertex="1" parent="hazUilRkBuBQSuuFyQSv-66">
          <mxGeometry x="6" y="3" width="21" height="30" as="geometry" />
        </mxCell>
        <mxCell id="hazUilRkBuBQSuuFyQSv-70" value="" style="rounded=0;whiteSpace=wrap;html=1;fillColor=#d5e8d4;strokeColor=#82b366;opacity=60;" vertex="1" parent="hazUilRkBuBQSuuFyQSv-66">
          <mxGeometry x="-53" y="5.5" width="90" height="11.5" as="geometry" />
        </mxCell>
        <mxCell id="hazUilRkBuBQSuuFyQSv-79" value="" style="group;opacity=60;" vertex="1" connectable="0" parent="hazUilRkBuBQSuuFyQSv-66">
          <mxGeometry x="-23" y="57" width="32" height="53" as="geometry" />
        </mxCell>
        <mxCell id="hazUilRkBuBQSuuFyQSv-73" value="" style="rounded=0;whiteSpace=wrap;html=1;rotation=-90;fillColor=#f5f5f5;fontColor=#333333;strokeColor=#666666;opacity=60;" vertex="1" parent="hazUilRkBuBQSuuFyQSv-79">
          <mxGeometry x="-10.5" y="10.5" width="53" height="32" as="geometry" />
        </mxCell>
        <mxCell id="hazUilRkBuBQSuuFyQSv-75" value="" style="rounded=0;whiteSpace=wrap;html=1;rotation=-90;opacity=60;" vertex="1" parent="hazUilRkBuBQSuuFyQSv-79">
          <mxGeometry x="-8.5" y="12.5" width="46" height="28" as="geometry" />
        </mxCell>
        <mxCell id="hazUilRkBuBQSuuFyQSv-77" value="" style="ellipse;whiteSpace=wrap;html=1;aspect=fixed;fillColor=#647687;strokeColor=#314354;fontColor=#ffffff;opacity=60;" vertex="1" parent="hazUilRkBuBQSuuFyQSv-79">
          <mxGeometry x="10" y="10.5" width="10" height="10" as="geometry" />
        </mxCell>
        <mxCell id="hazUilRkBuBQSuuFyQSv-78" value="" style="ellipse;whiteSpace=wrap;html=1;aspect=fixed;fillColor=#647687;strokeColor=#314354;fontColor=#ffffff;opacity=60;" vertex="1" parent="hazUilRkBuBQSuuFyQSv-79">
          <mxGeometry x="10" y="30.5" width="10" height="10" as="geometry" />
        </mxCell>
        <mxCell id="hazUilRkBuBQSuuFyQSv-92" value="" style="rounded=0;whiteSpace=wrap;html=1;fillColor=#fff2cc;strokeColor=#d6b656;opacity=60;rotation=-90;" vertex="1" parent="hazUilRkBuBQSuuFyQSv-79">
          <mxGeometry width="30" height="11.5" as="geometry" />
        </mxCell>
        <mxCell id="hazUilRkBuBQSuuFyQSv-91" value="" style="rounded=0;whiteSpace=wrap;html=1;fillColor=#ffe6cc;strokeColor=#d79b00;opacity=60;" vertex="1" parent="hazUilRkBuBQSuuFyQSv-66">
          <mxGeometry x="-13" y="46.5" width="30" height="11.5" as="geometry" />
        </mxCell>
        <mxCell id="hazUilRkBuBQSuuFyQSv-97" value="" style="rounded=0;whiteSpace=wrap;html=1;fillColor=#d5e8d4;strokeColor=#82b366;opacity=60;" vertex="1" parent="hazUilRkBuBQSuuFyQSv-66">
          <mxGeometry x="40" y="46.5" width="77" height="11.5" as="geometry" />
        </mxCell>
        <mxCell id="hazUilRkBuBQSuuFyQSv-67" value="" style="rounded=0;whiteSpace=wrap;html=1;fillColor=#d5e8d4;strokeColor=#82b366;opacity=60;" vertex="1" parent="1">
          <mxGeometry x="389" y="270" width="170" height="11.5" as="geometry" />
        </mxCell>
        <mxCell id="hazUilRkBuBQSuuFyQSv-68" value="" style="rounded=0;whiteSpace=wrap;html=1;fillColor=#fff2cc;strokeColor=#d6b656;opacity=60;" vertex="1" parent="1">
          <mxGeometry x="329" y="189.5" width="73" height="11.5" as="geometry" />
        </mxCell>
        <mxCell id="hazUilRkBuBQSuuFyQSv-69" value="" style="rounded=0;whiteSpace=wrap;html=1;fillColor=#d5e8d4;strokeColor=#82b366;opacity=60;rotation=-90;" vertex="1" parent="1">
          <mxGeometry x="373.25" y="169.75" width="41.5" height="11.5" as="geometry" />
        </mxCell>
        <mxCell id="hazUilRkBuBQSuuFyQSv-86" value="" style="group;opacity=60;" vertex="1" connectable="0" parent="1">
          <mxGeometry x="499" y="100" width="32" height="53" as="geometry" />
        </mxCell>
        <mxCell id="hazUilRkBuBQSuuFyQSv-87" value="" style="rounded=0;whiteSpace=wrap;html=1;rotation=-90;fillColor=#f5f5f5;fontColor=#333333;strokeColor=#666666;opacity=60;" vertex="1" parent="hazUilRkBuBQSuuFyQSv-86">
          <mxGeometry x="-10.5" y="10.5" width="53" height="32" as="geometry" />
        </mxCell>
        <mxCell id="hazUilRkBuBQSuuFyQSv-88" value="" style="rounded=0;whiteSpace=wrap;html=1;rotation=-90;opacity=60;" vertex="1" parent="hazUilRkBuBQSuuFyQSv-86">
          <mxGeometry x="-8.5" y="12.5" width="46" height="28" as="geometry" />
        </mxCell>
        <mxCell id="hazUilRkBuBQSuuFyQSv-89" value="" style="ellipse;whiteSpace=wrap;html=1;aspect=fixed;fillColor=#647687;strokeColor=#314354;fontColor=#ffffff;opacity=60;" vertex="1" parent="hazUilRkBuBQSuuFyQSv-86">
          <mxGeometry x="10" y="10.5" width="10" height="10" as="geometry" />
        </mxCell>
        <mxCell id="hazUilRkBuBQSuuFyQSv-90" value="" style="ellipse;whiteSpace=wrap;html=1;aspect=fixed;fillColor=#647687;strokeColor=#314354;fontColor=#ffffff;opacity=60;" vertex="1" parent="hazUilRkBuBQSuuFyQSv-86">
          <mxGeometry x="10" y="30.5" width="10" height="10" as="geometry" />
        </mxCell>
        <mxCell id="hazUilRkBuBQSuuFyQSv-93" value="" style="rounded=0;whiteSpace=wrap;html=1;fillColor=#d5e8d4;strokeColor=#82b366;opacity=60;rotation=-90;" vertex="1" parent="1">
          <mxGeometry x="379" y="260" width="30" height="11.5" as="geometry" />
        </mxCell>
        <mxCell id="hazUilRkBuBQSuuFyQSv-95" value="" style="ellipse;whiteSpace=wrap;html=1;aspect=fixed;fillColor=#d5e8d4;strokeColor=#82b366;opacity=60;" vertex="1" parent="1">
          <mxGeometry x="389" y="211.5" width="10" height="10" as="geometry" />
        </mxCell>
        <mxCell id="hazUilRkBuBQSuuFyQSv-144" style="edgeStyle=none;orthogonalLoop=1;jettySize=auto;html=1;exitX=1;exitY=0.25;exitDx=0;exitDy=0;entryX=0;entryY=0.5;entryDx=0;entryDy=0;curved=1;strokeWidth=2;strokeColor=#00FF00;endArrow=none;endFill=0;" edge="1" parent="1" source="hazUilRkBuBQSuuFyQSv-96" target="hazUilRkBuBQSuuFyQSv-142">
          <mxGeometry relative="1" as="geometry">
            <Array as="points">
              <mxPoint x="489" y="210" />
              <mxPoint x="589" y="430" />
            </Array>
          </mxGeometry>
        </mxCell>
        <mxCell id="hazUilRkBuBQSuuFyQSv-96" value="" style="rounded=0;whiteSpace=wrap;html=1;fillColor=#fff2cc;strokeColor=#d6b656;opacity=60;" vertex="1" parent="1">
          <mxGeometry x="389" y="230.75" width="50" height="11.5" as="geometry" />
        </mxCell>
        <mxCell id="hazUilRkBuBQSuuFyQSv-100" value="" style="group;opacity=60;rotation=-90;" vertex="1" connectable="0" parent="1">
          <mxGeometry x="589" y="248" width="78" height="53" as="geometry" />
        </mxCell>
        <mxCell id="hazUilRkBuBQSuuFyQSv-101" value="" style="rounded=0;whiteSpace=wrap;html=1;rotation=-180;fillColor=#f5f5f5;fontColor=#333333;strokeColor=#666666;opacity=60;" vertex="1" parent="hazUilRkBuBQSuuFyQSv-100">
          <mxGeometry x="-11" y="10" width="89" height="32" as="geometry" />
        </mxCell>
        <mxCell id="hazUilRkBuBQSuuFyQSv-102" value="" style="rounded=0;whiteSpace=wrap;html=1;rotation=-180;opacity=60;" vertex="1" parent="hazUilRkBuBQSuuFyQSv-100">
          <mxGeometry x="-7" y="14" width="80" height="28" as="geometry" />
        </mxCell>
        <mxCell id="hazUilRkBuBQSuuFyQSv-103" value="" style="ellipse;whiteSpace=wrap;html=1;aspect=fixed;fillColor=#647687;strokeColor=#314354;fontColor=#ffffff;opacity=60;rotation=-90;" vertex="1" parent="hazUilRkBuBQSuuFyQSv-100">
          <mxGeometry y="22" width="10" height="10" as="geometry" />
        </mxCell>
        <mxCell id="hazUilRkBuBQSuuFyQSv-104" value="" style="ellipse;whiteSpace=wrap;html=1;aspect=fixed;fillColor=#647687;strokeColor=#314354;fontColor=#ffffff;opacity=60;rotation=-90;" vertex="1" parent="hazUilRkBuBQSuuFyQSv-100">
          <mxGeometry x="20" y="22" width="10" height="10" as="geometry" />
        </mxCell>
        <mxCell id="hazUilRkBuBQSuuFyQSv-9" value="&lt;font style=&quot;font-size: 8px;&quot;&gt;100n&lt;/font&gt;" style="rounded=0;whiteSpace=wrap;html=1;gradientColor=none;fillColor=#FF9933;" vertex="1" parent="hazUilRkBuBQSuuFyQSv-100">
          <mxGeometry x="3.5" width="24" height="12" as="geometry" />
        </mxCell>
        <mxCell id="hazUilRkBuBQSuuFyQSv-106" value="" style="rounded=0;whiteSpace=wrap;html=1;fillColor=#fff2cc;strokeColor=#d6b656;opacity=60;rotation=-90;" vertex="1" parent="hazUilRkBuBQSuuFyQSv-100">
          <mxGeometry x="-10" y="12" width="30" height="11.5" as="geometry" />
        </mxCell>
        <mxCell id="hazUilRkBuBQSuuFyQSv-107" value="" style="rounded=0;whiteSpace=wrap;html=1;fillColor=#fff2cc;strokeColor=#d6b656;opacity=60;rotation=-90;" vertex="1" parent="hazUilRkBuBQSuuFyQSv-100">
          <mxGeometry x="10" y="12" width="30" height="11.5" as="geometry" />
        </mxCell>
        <mxCell id="hazUilRkBuBQSuuFyQSv-124" value="" style="rounded=0;whiteSpace=wrap;html=1;fillColor=#fff2cc;strokeColor=#d6b656;opacity=60;rotation=0;" vertex="1" parent="hazUilRkBuBQSuuFyQSv-100">
          <mxGeometry x="-40" y="22.25" width="50" height="11.5" as="geometry" />
        </mxCell>
        <mxCell id="hazUilRkBuBQSuuFyQSv-126" value="" style="ellipse;whiteSpace=wrap;html=1;aspect=fixed;fillColor=#f5f5f5;fontColor=#333333;strokeColor=#666666;opacity=60;" vertex="1" parent="hazUilRkBuBQSuuFyQSv-100">
          <mxGeometry x="40" y="22.25" width="10" height="10" as="geometry" />
        </mxCell>
        <mxCell id="hazUilRkBuBQSuuFyQSv-128" value="" style="ellipse;whiteSpace=wrap;html=1;aspect=fixed;fillColor=#f5f5f5;fontColor=#333333;strokeColor=#666666;opacity=60;" vertex="1" parent="hazUilRkBuBQSuuFyQSv-100">
          <mxGeometry x="60" y="22" width="10" height="10" as="geometry" />
        </mxCell>
        <mxCell id="hazUilRkBuBQSuuFyQSv-13" value="&lt;font style=&quot;font-size: 5px;&quot;&gt;10k&lt;/font&gt;" style="rounded=0;whiteSpace=wrap;html=1;gradientColor=none;fillColor=#B3B3B3;fontSize=5;" vertex="1" parent="hazUilRkBuBQSuuFyQSv-100">
          <mxGeometry x="50" y="23" width="12" height="8" as="geometry" />
        </mxCell>
        <mxCell id="hazUilRkBuBQSuuFyQSv-146" value="" style="rounded=0;whiteSpace=wrap;html=1;fillColor=#fff2cc;strokeColor=#d6b656;opacity=60;rotation=-90;" vertex="1" parent="hazUilRkBuBQSuuFyQSv-100">
          <mxGeometry x="29.63" y="10.38" width="10" height="32.25" as="geometry" />
        </mxCell>
        <mxCell id="hazUilRkBuBQSuuFyQSv-147" value="" style="rounded=0;whiteSpace=wrap;html=1;fillColor=#fff2cc;strokeColor=#d6b656;opacity=60;rotation=-90;" vertex="1" parent="hazUilRkBuBQSuuFyQSv-100">
          <mxGeometry x="60" y="21.5" width="10" height="11.5" as="geometry" />
        </mxCell>
        <mxCell id="hazUilRkBuBQSuuFyQSv-116" value="&lt;font style=&quot;font-size: 8px;&quot;&gt;Back Side Wiring&lt;/font&gt;" style="rounded=0;whiteSpace=wrap;html=1;fillColor=#fff2cc;strokeColor=#d6b656;opacity=60;verticalAlign=middle;" vertex="1" parent="1">
          <mxGeometry x="140" y="73" width="99" height="11.5" as="geometry" />
        </mxCell>
        <mxCell id="hazUilRkBuBQSuuFyQSv-117" value="&lt;font style=&quot;font-size: 8px;&quot;&gt;Front Side Wiring&lt;/font&gt;" style="rounded=0;whiteSpace=wrap;html=1;fillColor=#d5e8d4;strokeColor=#82b366;opacity=60;" vertex="1" parent="1">
          <mxGeometry x="140" y="90.75" width="99" height="11.5" as="geometry" />
        </mxCell>
        <mxCell id="hazUilRkBuBQSuuFyQSv-125" style="edgeStyle=none;orthogonalLoop=1;jettySize=auto;html=1;exitX=0.5;exitY=1;exitDx=0;exitDy=0;entryX=0.19;entryY=0.333;entryDx=0;entryDy=0;entryPerimeter=0;curved=1;endArrow=none;endFill=0;strokeWidth=2;strokeColor=#000000;" edge="1" parent="1" source="hazUilRkBuBQSuuFyQSv-126" target="hazUilRkBuBQSuuFyQSv-121">
          <mxGeometry relative="1" as="geometry">
            <mxPoint x="616.5" y="281.75" as="sourcePoint" />
            <Array as="points">
              <mxPoint x="639" y="310" />
              <mxPoint x="579" y="310" />
              <mxPoint x="479" y="310" />
              <mxPoint x="459" y="310" />
            </Array>
          </mxGeometry>
        </mxCell>
        <mxCell id="hazUilRkBuBQSuuFyQSv-130" style="edgeStyle=none;orthogonalLoop=1;jettySize=auto;html=1;exitX=0.5;exitY=1;exitDx=0;exitDy=0;entryX=0;entryY=0.5;entryDx=0;entryDy=0;curved=1;endArrow=none;endFill=0;strokeWidth=2;" edge="1" parent="1" source="hazUilRkBuBQSuuFyQSv-128" target="hazUilRkBuBQSuuFyQSv-119">
          <mxGeometry relative="1" as="geometry">
            <Array as="points">
              <mxPoint x="649" y="380" />
            </Array>
          </mxGeometry>
        </mxCell>
        <mxCell id="hazUilRkBuBQSuuFyQSv-135" style="edgeStyle=none;orthogonalLoop=1;jettySize=auto;html=1;exitX=0.5;exitY=0;exitDx=0;exitDy=0;entryX=0;entryY=0.5;entryDx=0;entryDy=0;curved=1;endArrow=none;endFill=0;strokeWidth=2;" edge="1" parent="1" source="hazUilRkBuBQSuuFyQSv-132" target="hazUilRkBuBQSuuFyQSv-107">
          <mxGeometry relative="1" as="geometry">
            <Array as="points">
              <mxPoint x="372" y="310" />
              <mxPoint x="619" y="300" />
            </Array>
          </mxGeometry>
        </mxCell>
        <mxCell id="hazUilRkBuBQSuuFyQSv-136" style="edgeStyle=none;orthogonalLoop=1;jettySize=auto;html=1;exitX=0.5;exitY=0;exitDx=0;exitDy=0;curved=1;strokeWidth=2;endArrow=none;endFill=0;" edge="1" parent="1" source="hazUilRkBuBQSuuFyQSv-131">
          <mxGeometry relative="1" as="geometry">
            <mxPoint x="589" y="280" as="targetPoint" />
            <Array as="points">
              <mxPoint x="349" y="300" />
              <mxPoint x="579" y="290" />
            </Array>
          </mxGeometry>
        </mxCell>
        <mxCell id="hazUilRkBuBQSuuFyQSv-143" style="edgeStyle=none;orthogonalLoop=1;jettySize=auto;html=1;exitX=0;exitY=0.5;exitDx=0;exitDy=0;entryX=0;entryY=0.25;entryDx=0;entryDy=0;curved=1;endArrow=none;endFill=0;strokeWidth=2;strokeColor=#00FF00;" edge="1" parent="1" source="hazUilRkBuBQSuuFyQSv-141" target="hazUilRkBuBQSuuFyQSv-63">
          <mxGeometry relative="1" as="geometry">
            <Array as="points">
              <mxPoint x="479" y="450" />
              <mxPoint x="479" y="320" />
              <mxPoint x="489" y="200" />
            </Array>
          </mxGeometry>
        </mxCell>
        <mxCell id="hazUilRkBuBQSuuFyQSv-98" value="" style="rounded=0;whiteSpace=wrap;html=1;fillColor=#d5e8d4;strokeColor=#82b366;opacity=60;" vertex="1" parent="1">
          <mxGeometry x="689" y="90.75" width="31" height="33" as="geometry" />
        </mxCell>
        <mxCell id="hazUilRkBuBQSuuFyQSv-148" value="" style="rounded=0;whiteSpace=wrap;html=1;fillColor=#d5e8d4;strokeColor=#82b366;opacity=60;" vertex="1" parent="1">
          <mxGeometry x="689" y="191.5" width="31" height="33" as="geometry" />
        </mxCell>
        <mxCell id="hazUilRkBuBQSuuFyQSv-151" style="edgeStyle=none;orthogonalLoop=1;jettySize=auto;html=1;exitX=1;exitY=0.5;exitDx=0;exitDy=0;entryX=0;entryY=0.5;entryDx=0;entryDy=0;curved=1;endArrow=none;endFill=0;strokeWidth=2;fillColor=#e51400;strokeColor=#B20000;" edge="1" parent="1" source="hazUilRkBuBQSuuFyQSv-89" target="hazUilRkBuBQSuuFyQSv-137">
          <mxGeometry relative="1" as="geometry">
            <Array as="points">
              <mxPoint x="679" y="140" />
            </Array>
          </mxGeometry>
        </mxCell>
        <mxCell id="hazUilRkBuBQSuuFyQSv-152" style="edgeStyle=none;orthogonalLoop=1;jettySize=auto;html=1;exitX=1;exitY=0.5;exitDx=0;exitDy=0;entryX=0;entryY=0.5;entryDx=0;entryDy=0;strokeWidth=2;endArrow=none;endFill=0;curved=1;" edge="1" parent="1" source="hazUilRkBuBQSuuFyQSv-90" target="hazUilRkBuBQSuuFyQSv-120">
          <mxGeometry relative="1" as="geometry">
            <Array as="points">
              <mxPoint x="639" y="130" />
            </Array>
          </mxGeometry>
        </mxCell>
        <mxCell id="hazUilRkBuBQSuuFyQSv-155" value="" style="group" vertex="1" connectable="0" parent="1">
          <mxGeometry x="759" y="140" width="126" height="80" as="geometry" />
        </mxCell>
        <mxCell id="hazUilRkBuBQSuuFyQSv-47" value="" style="group" vertex="1" connectable="0" parent="hazUilRkBuBQSuuFyQSv-155">
          <mxGeometry width="126" height="80" as="geometry" />
        </mxCell>
        <mxCell id="hazUilRkBuBQSuuFyQSv-46" value="Barrel Jack" style="rounded=1;whiteSpace=wrap;html=1;fillColor=#f5f5f5;gradientColor=#b3b3b3;strokeColor=#666666;align=left;" vertex="1" parent="hazUilRkBuBQSuuFyQSv-47">
          <mxGeometry x="37" y="8" width="53" height="54" as="geometry" />
        </mxCell>
        <mxCell id="hazUilRkBuBQSuuFyQSv-45" value="" style="group" vertex="1" connectable="0" parent="hazUilRkBuBQSuuFyQSv-47">
          <mxGeometry width="126" height="80" as="geometry" />
        </mxCell>
        <mxCell id="hazUilRkBuBQSuuFyQSv-43" value="" style="rounded=1;whiteSpace=wrap;html=1;fillColor=#f5f5f5;gradientColor=#b3b3b3;strokeColor=#666666;" vertex="1" parent="hazUilRkBuBQSuuFyQSv-45">
          <mxGeometry x="90" width="36" height="70" as="geometry" />
        </mxCell>
        <mxCell id="hazUilRkBuBQSuuFyQSv-44" value="" style="rounded=1;whiteSpace=wrap;html=1;fillColor=#f5f5f5;gradientColor=#b3b3b3;strokeColor=#666666;" vertex="1" parent="hazUilRkBuBQSuuFyQSv-45">
          <mxGeometry x="1" y="20" width="36" height="10" as="geometry" />
        </mxCell>
        <mxCell id="hazUilRkBuBQSuuFyQSv-48" value="" style="rounded=1;whiteSpace=wrap;html=1;" vertex="1" parent="hazUilRkBuBQSuuFyQSv-45">
          <mxGeometry x="80" y="-10" width="10" height="90" as="geometry" />
        </mxCell>
        <mxCell id="hazUilRkBuBQSuuFyQSv-153" value="" style="rounded=1;whiteSpace=wrap;html=1;fillColor=#f5f5f5;gradientColor=#b3b3b3;strokeColor=#666666;" vertex="1" parent="hazUilRkBuBQSuuFyQSv-155">
          <mxGeometry x="1" y="39.5" width="36" height="10" as="geometry" />
        </mxCell>
        <mxCell id="hazUilRkBuBQSuuFyQSv-156" style="edgeStyle=none;orthogonalLoop=1;jettySize=auto;html=1;exitX=0;exitY=0.5;exitDx=0;exitDy=0;curved=1;strokeWidth=3;endArrow=none;endFill=0;" edge="1" parent="1" source="hazUilRkBuBQSuuFyQSv-44" target="hazUilRkBuBQSuuFyQSv-148">
          <mxGeometry relative="1" as="geometry" />
        </mxCell>
        <mxCell id="hazUilRkBuBQSuuFyQSv-157" style="edgeStyle=none;orthogonalLoop=1;jettySize=auto;html=1;exitX=0.25;exitY=1;exitDx=0;exitDy=0;entryX=0.5;entryY=1;entryDx=0;entryDy=0;strokeWidth=3;endArrow=none;endFill=0;curved=1;" edge="1" parent="1" source="hazUilRkBuBQSuuFyQSv-153" target="hazUilRkBuBQSuuFyQSv-51">
          <mxGeometry relative="1" as="geometry">
            <Array as="points">
              <mxPoint x="739" y="180" />
              <mxPoint x="739" y="240" />
            </Array>
          </mxGeometry>
        </mxCell>
        <mxCell id="hazUilRkBuBQSuuFyQSv-158" style="edgeStyle=none;orthogonalLoop=1;jettySize=auto;html=1;exitX=0.75;exitY=1;exitDx=0;exitDy=0;entryX=1;entryY=1;entryDx=0;entryDy=0;strokeWidth=3;strokeColor=#000000;endArrow=none;endFill=0;curved=1;" edge="1" parent="1" source="hazUilRkBuBQSuuFyQSv-52" target="hazUilRkBuBQSuuFyQSv-98">
          <mxGeometry relative="1" as="geometry">
            <Array as="points">
              <mxPoint x="659" y="280" />
              <mxPoint x="739" y="130" />
            </Array>
          </mxGeometry>
        </mxCell>
        <mxCell id="hazUilRkBuBQSuuFyQSv-173" style="edgeStyle=none;rounded=0;orthogonalLoop=1;jettySize=auto;html=1;exitX=0;exitY=0;exitDx=0;exitDy=0;dashed=1;" edge="1" parent="1" source="hazUilRkBuBQSuuFyQSv-162">
          <mxGeometry relative="1" as="geometry">
            <mxPoint x="750" y="579.9983333333333" as="targetPoint" />
          </mxGeometry>
        </mxCell>
        <mxCell id="hazUilRkBuBQSuuFyQSv-176" style="edgeStyle=none;rounded=0;orthogonalLoop=1;jettySize=auto;html=1;exitX=0;exitY=0;exitDx=0;exitDy=0;entryX=0;entryY=1;entryDx=0;entryDy=0;dashed=1;" edge="1" parent="1" source="hazUilRkBuBQSuuFyQSv-162" target="hazUilRkBuBQSuuFyQSv-175">
          <mxGeometry relative="1" as="geometry" />
        </mxCell>
        <mxCell id="hazUilRkBuBQSuuFyQSv-162" value="" style="rounded=0;whiteSpace=wrap;html=1;" vertex="1" parent="1">
          <mxGeometry x="780" y="580.04" width="220" height="111.5" as="geometry" />
        </mxCell>
        <mxCell id="hazUilRkBuBQSuuFyQSv-163" style="edgeStyle=none;rounded=0;orthogonalLoop=1;jettySize=auto;html=1;entryX=0.5;entryY=1;entryDx=0;entryDy=0;startArrow=classic;startFill=1;exitX=0.5;exitY=1;exitDx=0;exitDy=0;" edge="1" parent="1" source="hazUilRkBuBQSuuFyQSv-165" target="hazUilRkBuBQSuuFyQSv-166">
          <mxGeometry relative="1" as="geometry">
            <mxPoint x="780" y="608.04" as="sourcePoint" />
          </mxGeometry>
        </mxCell>
        <mxCell id="hazUilRkBuBQSuuFyQSv-164" value="66mm" style="edgeLabel;html=1;align=center;verticalAlign=middle;resizable=0;points=[];fontSize=10;" vertex="1" connectable="0" parent="hazUilRkBuBQSuuFyQSv-163">
          <mxGeometry x="0.0182" y="-3" relative="1" as="geometry">
            <mxPoint as="offset" />
          </mxGeometry>
        </mxCell>
        <mxCell id="hazUilRkBuBQSuuFyQSv-174" style="edgeStyle=none;rounded=0;orthogonalLoop=1;jettySize=auto;html=1;exitX=0.5;exitY=0;exitDx=0;exitDy=0;entryX=1;entryY=0.6;entryDx=0;entryDy=0;entryPerimeter=0;dashed=1;" edge="1" parent="1" source="hazUilRkBuBQSuuFyQSv-165" target="hazUilRkBuBQSuuFyQSv-172">
          <mxGeometry relative="1" as="geometry" />
        </mxCell>
        <mxCell id="hazUilRkBuBQSuuFyQSv-165" value="" style="ellipse;whiteSpace=wrap;html=1;aspect=fixed;" vertex="1" parent="1">
          <mxGeometry x="790" y="586.04" width="20" height="20" as="geometry" />
        </mxCell>
        <mxCell id="hazUilRkBuBQSuuFyQSv-184" style="edgeStyle=none;rounded=0;orthogonalLoop=1;jettySize=auto;html=1;exitX=1;exitY=0.5;exitDx=0;exitDy=0;entryX=1;entryY=1;entryDx=0;entryDy=0;dashed=1;" edge="1" parent="1" source="hazUilRkBuBQSuuFyQSv-166" target="hazUilRkBuBQSuuFyQSv-182">
          <mxGeometry relative="1" as="geometry" />
        </mxCell>
        <mxCell id="hazUilRkBuBQSuuFyQSv-185" style="edgeStyle=none;rounded=0;orthogonalLoop=1;jettySize=auto;html=1;exitX=0;exitY=0.5;exitDx=0;exitDy=0;entryX=0.336;entryY=0.967;entryDx=0;entryDy=0;entryPerimeter=0;dashed=1;" edge="1" parent="1" source="hazUilRkBuBQSuuFyQSv-166" target="hazUilRkBuBQSuuFyQSv-182">
          <mxGeometry relative="1" as="geometry" />
        </mxCell>
        <mxCell id="hazUilRkBuBQSuuFyQSv-166" value="" style="ellipse;whiteSpace=wrap;html=1;aspect=fixed;" vertex="1" parent="1">
          <mxGeometry x="970" y="586.04" width="20" height="20" as="geometry" />
        </mxCell>
        <mxCell id="hazUilRkBuBQSuuFyQSv-177" style="edgeStyle=none;rounded=0;orthogonalLoop=1;jettySize=auto;html=1;dashed=1;exitX=0;exitY=0.5;exitDx=0;exitDy=0;" edge="1" parent="1" source="hazUilRkBuBQSuuFyQSv-165">
          <mxGeometry relative="1" as="geometry">
            <mxPoint x="790" y="590" as="sourcePoint" />
            <mxPoint x="790" y="550" as="targetPoint" />
          </mxGeometry>
        </mxCell>
        <mxCell id="hazUilRkBuBQSuuFyQSv-167" value="" style="ellipse;whiteSpace=wrap;html=1;aspect=fixed;" vertex="1" parent="1">
          <mxGeometry x="790" y="666.04" width="20" height="20" as="geometry" />
        </mxCell>
        <mxCell id="hazUilRkBuBQSuuFyQSv-168" value="" style="ellipse;whiteSpace=wrap;html=1;aspect=fixed;" vertex="1" parent="1">
          <mxGeometry x="970" y="666.04" width="20" height="20" as="geometry" />
        </mxCell>
        <mxCell id="hazUilRkBuBQSuuFyQSv-169" style="edgeStyle=none;rounded=0;orthogonalLoop=1;jettySize=auto;html=1;entryX=0.5;entryY=0;entryDx=0;entryDy=0;startArrow=classic;startFill=1;exitX=0.5;exitY=1;exitDx=0;exitDy=0;" edge="1" parent="1" source="hazUilRkBuBQSuuFyQSv-165" target="hazUilRkBuBQSuuFyQSv-167">
          <mxGeometry relative="1" as="geometry">
            <mxPoint x="810" y="616.04" as="sourcePoint" />
            <mxPoint x="990" y="616.04" as="targetPoint" />
          </mxGeometry>
        </mxCell>
        <mxCell id="hazUilRkBuBQSuuFyQSv-170" value="26mm" style="edgeLabel;html=1;align=center;verticalAlign=middle;resizable=0;points=[];fontSize=10;" vertex="1" connectable="0" parent="hazUilRkBuBQSuuFyQSv-169">
          <mxGeometry x="0.0182" y="-3" relative="1" as="geometry">
            <mxPoint as="offset" />
          </mxGeometry>
        </mxCell>
        <mxCell id="hazUilRkBuBQSuuFyQSv-172" value="1mm" style="text;html=1;strokeColor=none;fillColor=none;align=center;verticalAlign=middle;whiteSpace=wrap;rounded=0;" vertex="1" parent="1">
          <mxGeometry x="720" y="580.04" width="30" height="10" as="geometry" />
        </mxCell>
        <mxCell id="hazUilRkBuBQSuuFyQSv-175" value="1.5mm" style="text;html=1;strokeColor=none;fillColor=none;align=center;verticalAlign=middle;whiteSpace=wrap;rounded=0;" vertex="1" parent="1">
          <mxGeometry x="780" y="540" width="30" height="10" as="geometry" />
        </mxCell>
        <mxCell id="hazUilRkBuBQSuuFyQSv-179" style="edgeStyle=none;rounded=0;orthogonalLoop=1;jettySize=auto;html=1;exitX=0;exitY=0;exitDx=0;exitDy=0;" edge="1" parent="1" source="hazUilRkBuBQSuuFyQSv-178">
          <mxGeometry relative="1" as="geometry">
            <mxPoint x="740" y="700.25" as="targetPoint" />
          </mxGeometry>
        </mxCell>
        <mxCell id="hazUilRkBuBQSuuFyQSv-180" style="edgeStyle=none;rounded=0;orthogonalLoop=1;jettySize=auto;html=1;exitX=0;exitY=1;exitDx=0;exitDy=0;" edge="1" parent="1" source="hazUilRkBuBQSuuFyQSv-178">
          <mxGeometry relative="1" as="geometry">
            <mxPoint x="740" y="750.25" as="targetPoint" />
          </mxGeometry>
        </mxCell>
        <mxCell id="hazUilRkBuBQSuuFyQSv-178" value="" style="rounded=1;whiteSpace=wrap;html=1;" vertex="1" parent="1">
          <mxGeometry x="779" y="700" width="51" height="50" as="geometry" />
        </mxCell>
        <mxCell id="hazUilRkBuBQSuuFyQSv-181" value="14mm" style="text;html=1;align=center;verticalAlign=middle;resizable=0;points=[];autosize=1;strokeColor=none;fillColor=none;" vertex="1" parent="1">
          <mxGeometry x="714" y="710" width="60" height="30" as="geometry" />
        </mxCell>
        <mxCell id="hazUilRkBuBQSuuFyQSv-182" value="2mmD" style="text;html=1;strokeColor=none;fillColor=none;align=center;verticalAlign=middle;whiteSpace=wrap;rounded=0;" vertex="1" parent="1">
          <mxGeometry x="960" y="550" width="30" height="10" as="geometry" />
        </mxCell>
      </root>
    </mxGraphModel>
  </diagram>
</mxfile>
